<?xml version="1.0" encoding="UTF-8"?>
<!-- Created with Inkscape (http://www.inkscape.org/) -->
<svg width="300" height="500" version="1.1" viewBox="0 0 79.375002 132.29166" xmlns="http://www.w3.org/2000/svg" xmlns:cc="http://creativecommons.org/ns#" xmlns:dc="http://purl.org/dc/elements/1.1/" xmlns:rdf="http://www.w3.org/1999/02/22-rdf-syntax-ns#" xmlns:xlink="http://www.w3.org/1999/xlink">
 <defs>
  <radialGradient id="radialGradient4532" cx="79.511" cy="94.909" r="24.891" gradientTransform="matrix(2.0218 .007453 -.0077595 2.105 -105.64 -39.208)" gradientUnits="userSpaceOnUse">
   <stop stop-color="#fff" offset="0"/>
   <stop stop-color="#8cdc8c" offset="1"/>
  </radialGradient>
  <radialGradient id="radialGradient4520" cx="63.974" cy="74.089" r="3.409" gradientTransform="matrix(.43992 0 0 .43992 35.518 41.772)" gradientUnits="userSpaceOnUse">
   <stop stop-color="#b8dab8" offset="0"/>
   <stop stop-color="#b8dab8" stop-opacity="0" offset="1"/>
  </radialGradient>
  <radialGradient id="radialGradient4615" cx="124.71" cy="-6.7218" r="1.4595" gradientTransform="matrix(.49768 0 0 .49768 61.068 24.387)" gradientUnits="userSpaceOnUse">
   <stop stop-color="#ff5858" offset="0"/>
   <stop stop-color="#ff5858" stop-opacity="0" offset="1"/>
  </radialGradient>
 </defs>
 <metadata>
  <rdf:RDF>
   <cc:Work rdf:about="">
    <dc:format>image/svg+xml</dc:format>
    <dc:type rdf:resource="http://purl.org/dc/dcmitype/StillImage"/>
    <dc:title/>
   </cc:Work>
  </rdf:RDF>
 </metadata>
 <g transform="translate(-14.792 -50.625)">
  <g transform="matrix(1.6012 0 0 1.4791 -32.773 -55.934)" stroke-width=".34385">
   <path d="m35.676 72.26c-0.08453-0.0017-0.1685-0.0012-0.25166 0.0023-3.2155 0.12992-5.3784 4.1356-5.5464 10.991 0.51905 7.3966 3.1525 17.298 2.0681 27.625-0.54222 5.1632-2.7015 21.353-0.18862 32.631 2.5129 11.278 9.6979 17.644 22.498 17.799 0.08017 8.7e-4 0.15702-1e-3 0.23668-5.8e-4 0.07966-5.8e-4 0.15651 1e-3 0.23668 5.8e-4 12.8-0.1553 19.985-6.521 22.498-17.799 2.5129-11.278 0.35359-27.468-0.18862-32.631-1.0844-10.326 1.549-20.228 2.0681-27.625-0.168-6.8555-2.3309-10.861-5.5464-10.991-0.33264-0.01345-0.6763 0.01429-1.0304 0.08493-3.7774 0.75362-2.8126 2.3445-5.2576 3.3236-2.445 0.97912-5.5911-1.157-7.5256-0.36237-1.7284 0.70994-2.4027 2.2195-5.0173 2.2195-0.08316 0-0.15787-0.0053-0.23668-0.0079-0.07881 0.0026-0.15352 0.0079-0.23668 0.0079-2.6146 0-3.2889-1.5096-5.0173-2.2195-1.9345-0.79462-5.0806 1.3415-7.5256 0.36237-2.445-0.97912-1.4801-2.57-5.2576-3.3236-0.2656-0.05298-0.52518-0.08176-0.77876-0.08719z" fill="url(#radialGradient4532)" stroke="#1f911f"/>
   <path d="m35.146 83.644s10.424 22.256 2.0045 50.222" fill="none" stroke="#5cc45c" stroke-linecap="round" stroke-linejoin="round"/>
   <path d="m45.19 82.41c-1.8444 19.665 7.5247 38.665-4.5436 65.01" fill="none" stroke="#5cc45c" stroke-linecap="round" stroke-linejoin="round"/>
   <path d="m51.975 83.278c-2.0045 24.305 2.5172 48.318-0.66818 69.695" fill="none" stroke="#5cc45c" stroke-linecap="round" stroke-linejoin="round"/>
   <path d="m73.886 83.644s-10.424 22.256-2.0045 50.222" fill="none" stroke="#5cc45c" stroke-linecap="round" stroke-linejoin="round"/>
   <path d="m63.842 82.41c1.8444 19.665-7.5247 38.665 4.5436 65.01" fill="none" stroke="#5cc45c" stroke-linecap="round" stroke-linejoin="round"/>
   <path d="m57.057 83.278c2.0045 24.305-2.5172 48.318 0.66818 69.695" fill="none" stroke="#5cc45c" stroke-linecap="round" stroke-linejoin="round"/>
  </g>
  <g transform="translate(-23.536 73.189)">
   <path d="m62.172 61.387c-0.07074 1.45e-4 -0.14146 0.0044-0.2121 0.01365-3.83e-4 5.1e-5 -7.44e-4 2.27e-4 -0.0012 2.27e-4 -0.565 0.07482-1.0488 0.46682-1.5981 0.61403-0.54937 0.1472-1.1642 0.04968-1.6909 0.26734-0.52696 0.21827-0.89292 0.7225-1.3858 1.0071-0.49258 0.28439-1.1118 0.34925-1.5643 0.69587l-2.32e-4 2.32e-4c-0.45234 0.34725-0.67541 0.92888-1.0778 1.3313-0.40215 0.40215-0.98326 0.62528-1.3306 1.0771l-2.32e-4 -2.34e-4c-0.34722 0.45251-0.41197 1.0723-0.69655 1.5652-0.28458 0.4929-0.78904 0.85909-1.0073 1.386h2.26e-4c-0.21756 0.52665-0.12015 1.1416-0.26733 1.6909-0.14725 0.54954-0.53934 1.0334-0.61403 1.5986l-0.0275-0.0037c-0.07445 0.5655 0.17937 1.1345 0.17937 1.7036 0 0.56877-0.25355 1.1376-0.17959 1.7027 5.2e-5 3.49e-4 2.28e-4 6.97e-4 2.28e-4 0.0012 0.07482 0.565 0.46682 1.0488 0.61403 1.5982 0.1472 0.54937 0.04968 1.1642 0.26734 1.6909 0.21828 0.52696 0.7225 0.89292 1.0071 1.3858 0.28439 0.49258 0.34925 1.1118 0.69587 1.5643l2.32e-4 2.33e-4c0.34725 0.45234 0.92888 0.67541 1.3313 1.0778 0.40216 0.40215 0.62528 0.98326 1.0771 1.3306l-2.33e-4 2.33e-4c0.45251 0.34722 1.0723 0.41197 1.5652 0.69655s0.85909 0.78904 1.386 1.0073v-2.34e-4c0.52665 0.21757 1.1416 0.12016 1.6909 0.26734 0.54962 0.14727 1.0335 0.53966 1.5988 0.61425l-0.0037 0.0275c0.5655 0.07445 1.1345-0.17937 1.7036-0.17937 0.56877 0 1.1376 0.25355 1.7027 0.17959 3.5e-4 -4.8e-5 6.99e-4 -2.33e-4 0.0012-2.33e-4 0.565-0.07482 1.0488-0.46682 1.5982-0.61403 0.54937-0.1472 1.1642-0.04967 1.6909-0.26734 0.52696-0.21827 0.89292-0.72251 1.3858-1.0071 0.49258-0.28439 1.1118-0.34925 1.5643-0.69587l2.33e-4 -2.32e-4c0.45234-0.34725 0.6754-0.92888 1.0778-1.3313 0.40215-0.40215 0.98326-0.62528 1.3306-1.0771l2.32e-4 2.33e-4c0.34722-0.45251 0.41197-1.0723 0.69655-1.5652 0.28458-0.4929 0.78904-0.85909 1.0073-1.386h-2.33e-4c0.21757-0.52665 0.12016-1.1416 0.26734-1.6909 0.14727-0.54962 0.53966-1.0335 0.61426-1.5988l0.02728 0.0037c0.07445-0.5655-0.17936-1.1345-0.17936-1.7036 0-0.56877 0.25355-1.1376 0.17959-1.7027-5.1e-5 -3.83e-4 -2.32e-4 -7.56e-4 -2.32e-4 -0.0012-0.07482-0.565-0.46682-1.0488-0.61403-1.5982-0.1472-0.54937-0.04968-1.1642-0.26734-1.6909-0.21827-0.52696-0.72251-0.89292-1.0071-1.3858-0.28439-0.49258-0.34925-1.1118-0.69587-1.5643l-2.33e-4 -2.32e-4c-0.34725-0.45234-0.92888-0.67541-1.3313-1.0778-0.40215-0.40215-0.62528-0.98326-1.0771-1.3306l2.34e-4 -2.33e-4c-0.45248-0.34722-1.0723-0.41197-1.5652-0.69655-0.4929-0.28458-0.85909-0.78904-1.386-1.0073v2.26e-4c-0.5267-0.21756-1.1416-0.12016-1.6909-0.26735-0.54962-0.14727-1.0335-0.53966-1.5988-0.61426l0.0037-0.02727c-0.5655-0.07445-1.1345 0.17937-1.7036 0.17937-0.49768 0-0.99538-0.19425-1.4906-0.19324zm1.4638 12.948 0.02614 0.0034 2.33e-4 2.32e-4 2.33e-4 9.31e-4 -0.0034 0.02523-2.33e-4 2.33e-4h-2.33e-4l-0.02591-0.0035-2.32e-4 -2.32e-4 -2.34e-4 -0.0012 0.0035-0.025z" fill="#98cc98" fill-opacity=".99606" stroke="#328f32" stroke-linecap="round" stroke-linejoin="bevel" stroke-width=".52917"/>
   <path d="m62.342 62.878c-0.06261 1.27e-4 -0.12519 0.0039-0.1877 0.01208-3.41e-4 4.5e-5 -6.6e-4 2e-4 -9.89e-4 2e-4 -0.5 0.06623-0.9281 0.41311-1.4143 0.54338-0.48617 0.13027-1.0303 0.04397-1.4964 0.23659-0.46634 0.19316-0.79019 0.63938-1.2264 0.89122-0.43591 0.25167-0.98393 0.30907-1.3843 0.61581l-2.06e-4 2.06e-4c-0.4003 0.3073-0.5977 0.82202-0.95379 1.1781-0.35589 0.35589-0.87014 0.55334-1.1775 0.95318l-2.07e-4 -2.05e-4c-0.30728 0.40045-0.36457 0.94892-0.61641 1.3851-0.25184 0.4362-0.69826 0.76025-0.89142 1.2266h2.02e-4c-0.19252 0.46606-0.10632 1.0103-0.23658 1.4964-0.13031 0.48631-0.47729 0.91452-0.54338 1.4147l-0.02435-0.0033c-0.06587 0.50044 0.15873 1.004 0.15873 1.5076 0 0.50334-0.22438 1.0067-0.15893 1.5068 4.4e-5 3.1e-4 2.01e-4 6.15e-4 2.01e-4 9.88e-4 0.06623 0.5 0.41311 0.9281 0.54338 1.4143 0.13027 0.48617 0.04397 1.0303 0.23659 1.4964 0.19316 0.46634 0.63938 0.79019 0.89122 1.2264 0.25167 0.43591 0.30907 0.98393 0.61581 1.3843l2.07e-4 2.06e-4c0.3073 0.4003 0.82202 0.5977 1.1781 0.95379 0.35589 0.35589 0.55334 0.87014 0.95318 1.1775l-2.06e-4 2.06e-4c0.40045 0.30728 0.94892 0.36457 1.3851 0.61641 0.4362 0.25184 0.76025 0.69826 1.2266 0.89143v-2.05e-4c0.46606 0.19254 1.0103 0.10633 1.4964 0.23659 0.48639 0.13032 0.91462 0.47757 1.4149 0.54359l-0.0033 0.02433c0.50044 0.06589 1.004-0.15874 1.5076-0.15874 0.50334 0 1.0067 0.22438 1.5068 0.15893 3.1e-4 -3.9e-5 6.16e-4 -2.02e-4 9.89e-4 -2.02e-4 0.5-0.06622 0.9281-0.41312 1.4143-0.54339 0.48617-0.13027 1.0303-0.04396 1.4964-0.23659 0.46634-0.19316 0.79019-0.63938 1.2264-0.89123 0.43591-0.25167 0.98393-0.30907 1.3843-0.61581l2.07e-4 -2.07e-4c0.4003-0.3073 0.5977-0.82202 0.95379-1.1781 0.35589-0.35589 0.87014-0.55334 1.1775-0.95318l2.06e-4 2.06e-4c0.30728-0.40045 0.36457-0.94892 0.61641-1.3851 0.25184-0.4362 0.69826-0.76025 0.89142-1.2266h-2.06e-4c0.19254-0.46606 0.10633-1.0103 0.23659-1.4964 0.13032-0.48639 0.47757-0.91462 0.54359-1.4149l0.02414 0.0033c0.06587-0.50044-0.15873-1.004-0.15873-1.5076 0-0.50334 0.22438-1.0067 0.15893-1.5068-4.5e-5 -3.4e-4 -2.06e-4 -6.59e-4 -2.06e-4 -9.89e-4 -0.06621-0.5-0.41311-0.9281-0.54338-1.4143-0.13027-0.48617-0.04397-1.0303-0.23659-1.4964-0.19315-0.46633-0.63937-0.79019-0.89121-1.2264-0.25167-0.43591-0.30907-0.98393-0.61581-1.3843l-2.07e-4 -2.06e-4c-0.30724-0.40027-0.82195-0.59767-1.178-0.95376-0.35589-0.35589-0.55334-0.87014-0.95319-1.1775l2.05e-4 -2.05e-4c-0.40041-0.30729-0.94888-0.36458-1.3851-0.61642-0.4362-0.25184-0.76025-0.69826-1.2266-0.89142v2e-4c-0.4661-0.19254-1.0103-0.10634-1.4964-0.23659-0.48639-0.13033-0.91462-0.47757-1.4149-0.54359l0.0033-0.02414c-0.50044-0.06587-1.004 0.15873-1.5076 0.15873-0.44042 0-0.88087-0.1719-1.3191-0.171zm1.2954 11.458 0.02314 0.0031 2.05e-4 2.07e-4 2.07e-4 8.36e-4 -0.0031 0.02233-2.05e-4 2.06e-4h-2.07e-4l-0.02293-0.0031-2.07e-4 -2.06e-4 -2.05e-4 -9.88e-4 0.0031-0.02213z" fill="#b8dab8" fill-opacity=".99606"/>
   <circle transform="rotate(20.811)" cx="85.928" cy="46.895" r="0" fill="#b8dab8"/>
   <path d="m65.723 68.94c-0.71942-0.27344-1.4785-0.39825-2.2331-0.376-0.75466 0.02224-0.9334 1.4639-1.6355 1.7793-0.70206 0.31535-1.8985-0.50861-2.4164 0.04074-0.51789 0.54936-0.92876 1.1997-1.2022 1.9191-0.27344 0.71942-0.39825 1.4785-0.376 2.2331s1.4638 0.93366 1.7792 1.6357c0.31535 0.70205-0.50861 1.8985 0.04075 2.4164 0.54935 0.51789 1.1998 0.92851 1.9192 1.2019 0.71942 0.27344 1.4784 0.39851 2.233 0.37626 0.75465-0.02225 0.93366-1.4638 1.6357-1.7792 0.70205-0.31535 1.8986 0.50836 2.4165-0.041 0.51789-0.54936 0.92851-1.1998 1.2019-1.9192 0.27344-0.71941 0.39851-1.4784 0.37626-2.233-0.02226-0.75465-1.4639-0.9334-1.7793-1.6355-0.31535-0.70206 0.50835-1.8986-0.041-2.4165-0.54935-0.51789-1.1997-0.92876-1.9191-1.2022z" fill="#fff" stroke="#98cc98" stroke-linecap="round" stroke-linejoin="bevel" stroke-width=".52917"/>
   <path d="m64.194 72.963c-0.1859-0.07065-0.38204-0.10291-0.57704-0.09716-0.195 0.0057-0.24119 0.37828-0.4226 0.45976-0.18141 0.08149-0.49057-0.13142-0.62439 0.01053-0.13382 0.14195-0.23999 0.31-0.31065 0.49589-0.07065 0.1859-0.10291 0.38204-0.09716 0.57704 0.0057 0.195 0.37825 0.24126 0.45974 0.42267 0.08148 0.18141-0.13143 0.49057 0.01053 0.62439 0.14195 0.13382 0.31002 0.23993 0.49592 0.31058 0.1859 0.07065 0.38201 0.10297 0.57701 0.09722 0.195-0.0057 0.24126-0.37825 0.42267-0.45974 0.18141-0.08149 0.49059 0.13136 0.62442-0.01059 0.13382-0.14195 0.23992-0.31002 0.31058-0.49592 0.07065-0.1859 0.10297-0.38201 0.09722-0.57701-0.0057-0.195-0.37828-0.24119-0.45976-0.4226-0.08149-0.18141 0.13136-0.49059-0.01059-0.62442-0.14195-0.13382-0.31-0.23999-0.49589-0.31065z" fill="url(#radialGradient4520)"/>
   <path d="m66.888 76.042c-0.55797-0.21208-1.2821-0.90979-1.2821-0.90979s1.0048-0.04057 1.5627 0.1715c0.55797 0.21208 0.53533 0.39262 0.45784 0.59649-0.07749 0.20387-0.18049 0.35387-0.73845 0.1418z" fill="#fff" fill-opacity=".9685" stroke="#53a553" stroke-linecap="round" stroke-width=".52917"/>
   <path d="m67.288 74.53c-0.59532 0.0436-1.5465-0.2827-1.5465-0.2827s0.89349-0.4614 1.4888-0.50501c0.59532-0.0436 0.6511 0.12959 0.66703 0.34711 0.01594 0.21752-0.01402 0.397-0.60934 0.4406z" fill="#fff" fill-opacity=".9685" stroke="#53a553" stroke-linecap="round" stroke-width=".52917"/>
   <path d="m65.886 77.244c-0.41606-0.42801-0.77751-1.3664-0.77751-1.3664s0.92778 0.38787 1.3438 0.81588c0.41606 0.42801 0.31925 0.58207 0.16286 0.7341-0.15639 0.15203-0.31313 0.24444-0.72919-0.18357z" fill="#fff" fill-opacity=".9685" stroke="#53a553" stroke-linecap="round" stroke-width=".52917"/>
   <g transform="matrix(0 .98873 -.98873 0 136.93 11.131)" fill="#fff" fill-opacity=".9685" stroke="#53a553" stroke-linecap="round" stroke-width=".5352">
    <path d="m67.221 75.766c-0.56433-0.21449-1.2967-0.92017-1.2967-0.92017s1.0162-0.04103 1.5806 0.17346c0.56433 0.21449 0.54143 0.3971 0.46306 0.60329-0.07837 0.2062-0.18254 0.35791-0.74687 0.14341z"/>
    <path d="m67.625 74.237c-0.60211 0.0441-1.5641-0.28592-1.5641-0.28592s0.90368-0.46666 1.5058-0.51076c0.60211-0.0441 0.65852 0.13107 0.67464 0.35107 0.01612 0.22-0.01418 0.40152-0.61629 0.44562z"/>
    <path d="m66.208 76.981c-0.42081-0.43289-0.78637-1.382-0.78637-1.382s0.93836 0.39229 1.3592 0.82518c0.42081 0.43289 0.32288 0.58871 0.16471 0.74246-0.15817 0.15376-0.3167 0.24723-0.73751-0.18566z"/>
   </g>
   <g transform="matrix(-.98873 0 0 -.98873 126.93 147.64)" fill="#fff" fill-opacity=".9685" stroke="#53a553" stroke-linecap="round" stroke-width=".5352">
    <path d="m67.221 75.766c-0.56433-0.21449-1.2967-0.92017-1.2967-0.92017s1.0162-0.04103 1.5806 0.17346c0.56433 0.21449 0.54143 0.3971 0.46306 0.60329-0.07837 0.2062-0.18254 0.35791-0.74687 0.14341z"/>
    <path d="m67.625 74.237c-0.60211 0.0441-1.5641-0.28592-1.5641-0.28592s0.90368-0.46666 1.5058-0.51076c0.60211-0.0441 0.65852 0.13107 0.67464 0.35107 0.01612 0.22-0.01418 0.40152-0.61629 0.44562z"/>
    <path d="m66.208 76.981c-0.42081-0.43289-0.78637-1.382-0.78637-1.382s0.93836 0.39229 1.3592 0.82518c0.42081 0.43289 0.32288 0.58871 0.16471 0.74246-0.15817 0.15376-0.3167 0.24723-0.73751-0.18566z"/>
   </g>
   <g transform="matrix(0 -.98873 .98873 0 -9.5759 137.64)" fill="#fff" fill-opacity=".9685" stroke="#53a553" stroke-linecap="round" stroke-width=".5352">
    <path d="m67.221 75.766c-0.56433-0.21449-1.2967-0.92017-1.2967-0.92017s1.0162-0.04103 1.5806 0.17346c0.56433 0.21449 0.54143 0.3971 0.46306 0.60329-0.07837 0.2062-0.18254 0.35791-0.74687 0.14341z"/>
    <path d="m67.625 74.237c-0.60211 0.0441-1.5641-0.28592-1.5641-0.28592s0.90368-0.46666 1.5058-0.51076c0.60211-0.0441 0.65852 0.13107 0.67464 0.35107 0.01612 0.22-0.01418 0.40152-0.61629 0.44562z"/>
    <path d="m66.208 76.981c-0.42081-0.43289-0.78637-1.382-0.78637-1.382s0.93836 0.39229 1.3592 0.82518c0.42081 0.43289 0.32288 0.58871 0.16471 0.74246-0.15817 0.15376-0.3167 0.24723-0.73751-0.18566z"/>
   </g>
  </g>
  <g transform="translate(-13.659 -7.9814)">
   <g transform="matrix(1.0013 0 0 1.0013 -.074203 -.14916)" stroke-width=".99873">
    <circle transform="rotate(41.75)" cx="123.13" cy="21.042" r="19.531" fill="#ff9a9a" stroke="#f00" stroke-width=".52849"/>
    <path d="m78.814 80.434c-0.12029-0.10199-0.26319-0.16446-0.4156-0.18168-0.33119-0.03742-0.66338-0.0598-0.99546-0.06769-0.33504-8e-3 -0.66982-0.0012-1.0036 0.0202-0.33649 0.02165-0.67199 0.05827-1.006 0.10905-0.33575 0.05104-0.67043 0.11658-1.003 0.19649-0.33376 0.0802-0.66496 0.1749-0.99374 0.28339-0.32942 0.10871-0.65635 0.23124-0.97983 0.36785-0.32389 0.13678-0.64392 0.28737-0.95963 0.45104-0.31591 0.16377-0.62796 0.34085-0.93486 0.53105-0.30642 0.1899-0.60803 0.39269-0.90424 0.60836-0.29529 0.215-0.58549 0.44276-0.86924 0.6827-0.28276 0.2391-0.55886 0.49039-0.82827 0.75305-0.26817 0.26145-0.5296 0.53448-0.78355 0.81881-0.25217 0.28235-0.48441 0.59102-0.73397 0.8803-0.5143 0.59613-1.0387 1.1837-1.5728 1.7622-0.25915 0.28071-0.53955 0.5464-0.79154 0.82892-0.25375 0.2845-0.49543 0.57517-0.72483 0.87122-0.23046 0.29741-0.44888 0.60018-0.65443 0.9082-0.20627 0.30909-0.39971 0.62321-0.57989 0.94094-0.18075 0.31873-0.34808 0.64136-0.50207 0.96731-0.15423 0.32646-0.29484 0.65655-0.42179 0.98898-0.12687 0.33221-0.24026 0.66723-0.33949 1.0045-0.09911 0.33687-0.18383 0.67557-0.25455 1.0152-0.07058 0.33894-0.12717 0.67874-0.16906 1.0194-0.04175 0.33952-0.06896 0.67947-0.08166 1.0188-0.01263 0.33762-0.01103 0.67511 0.0055 1.0119 0.01646 0.33405 0.04771 0.66744 0.09355 0.99942 0.04543 0.32905 0.10528 0.65657 0.17996 0.98139 0.11343 0.49252 0.67774 0.7624 1.2606 0.6029 0 0 0.42352-0.11586 1.1203-0.30661 0.32092-0.0879 0.69893-0.19148 1.1201-0.30679 0.34692-0.095 0.72323-0.19803 1.1205-0.30679 0.3583-0.09805 0.73368-0.20076 1.1203-0.3066 0.36493-0.0999 0.74009-0.20252 1.1203-0.30661 0.37031-0.10138 0.74514-0.20413 1.1201-0.30678 0.37478-0.1026 0.74978-0.20518 1.1203-0.30661 0.38002-0.10404 0.75535-0.20648 1.1205-0.30644 0.38663-0.10584 0.76218-0.20872 1.1205-0.3068 0.39725-0.10875 0.77319-0.21181 1.1201-0.30678 0.42159-0.11542 0.79981-0.2191 1.1201-0.30678 0.69671-0.19074 1.1203-0.30661 1.1203-0.30661 0.34463-0.0944 0.63486-0.325 0.77748-0.61774 0.04331-0.0889 0.10808-0.17052 0.1882-0.23983 6.96e-4 -5.97e-4 0.0014-9.96e-4 0.0021-0.0015 6.47e-4 -8.47e-4 7.47e-4 -0.0014 0.0013-0.0023 0.0598-0.08745 0.13356-0.16105 0.21698-0.21414 0.27471-0.17485 0.47097-0.48932 0.52574-0.84242 0 0 0.06718-0.43397 0.1778-1.1478 0.05086-0.32816 0.11105-0.71568 0.17799-1.1476 0.05509-0.35543 0.11491-0.74062 0.17799-1.1476 0.05689-0.36708 0.11658-0.75186 0.17797-1.148 0.05797-0.3741 0.11726-0.75862 0.17761-1.148 0.05883-0.37961 0.11829-0.76382 0.1778-1.1478 0.05954-0.38417 0.11919-0.76822 0.17799-1.1476 0.06037-0.38954 0.11986-0.7739 0.1778-1.1478 0.06139-0.3961 0.12091-0.7807 0.1778-1.1478 0.06308-0.40699 0.12289-0.79255 0.17797-1.148 0.06688-0.43151 0.12703-0.81882 0.17799-1.1476 0.11064-0.71389 0.1778-1.1478 0.1778-1.1478 0.0613-0.39546-0.06377-0.77991-0.32616-1.0026z" fill="#fff3f3" stroke="#f00" stroke-width=".52849"/>
    <g transform="matrix(.3713 .33139 -.33139 .3713 67.503 36.402)" fill="#ff5858" stroke-width="1.0619">
     <path d="m69.258 78.027c-2e-5 1.859 2.3139 3.3547 5.088 3.3864 2.7741 0.03171 8.5388-3.3104 8.6688-3.3863-0.12996-0.07591-5.8946-3.4181-8.6687-3.3864-2.7741 0.03167-5.0881 1.5273-5.0881 3.3863z"/>
     <path d="m69.836 62.045c-0.92952 1.6099 0.32656 4.0622 2.7132 5.4767 2.3866 1.4145 9.05 1.4025 9.2005 1.4018-0.0746-0.13072-3.3958-5.9075-5.8141-7.2671-2.4183-1.3596-5.1701-1.2214-6.0996 0.38858z"/>
     <path d="m69.836 94.009c0.92949 1.61 3.6813 1.7483 6.0996 0.3887 2.4183-1.3596 5.7396-7.1362 5.8142-7.267-0.15051-7.62e-4 -6.8139-0.01289-9.2005 1.4016-2.3866 1.4145-3.6428 3.8667-2.7133 5.4767z"/>
    </g>
    <path d="m62.43 105.49c-0.02821 0.15516-0.01083 0.31015 0.05046 0.45075 0.13319 0.30553 0.2799 0.60441 0.43911 0.89594 0.16063 0.29413 0.33382 0.58072 0.51929 0.85903 0.18699 0.28058 0.38646 0.55283 0.59744 0.81671 0.21208 0.26524 0.43617 0.52232 0.67169 0.77041 0.23633 0.24896 0.48394 0.48843 0.74231 0.71889 0.25886 0.23094 0.52842 0.45282 0.80849 0.66463 0.2804 0.21211 0.57083 0.41396 0.87042 0.60554 0.29979 0.19171 0.60916 0.37342 0.92733 0.54408 0.31767 0.17043 0.6441 0.33023 0.97898 0.47893 0.33384 0.14824 0.67619 0.28567 1.0259 0.41144 0.34845 0.12532 0.70412 0.23878 1.0663 0.34077 0.36051 0.10152 0.72767 0.19141 1.1009 0.26917 0.37061 0.0772 0.75405 0.12399 1.1293 0.19549 0.77341 0.14733 1.5445 0.3077 2.3125 0.48097 0.37268 0.0841 0.74297 0.19406 1.1136 0.27104 0.37326 0.0775 0.74582 0.14146 1.1169 0.19212 0.3728 0.0509 0.74421 0.0886 1.1137 0.11265 0.37082 0.024 0.73956 0.0345 1.1048 0.0317 0.36641-3e-3 0.72947-0.0192 1.0888-0.0488 0.35984-0.0297 0.71602-0.073 1.0674-0.1292 0.35114-0.0563 0.69796-0.12555 1.0397-0.20826 0.34129-0.0826 0.67698-0.17858 1.0065-0.28715 0.32882-0.10835 0.65139-0.22922 0.96739-0.36331 0.31491-0.13359 0.62292-0.28 0.92317-0.43869 0.2987-0.15787 0.59018-0.32799 0.87354-0.51076 0.28106-0.18127 0.55416-0.37504 0.81874-0.58072 0.26225-0.20387 0.51597-0.41947 0.75994-0.64656 0.36982-0.34447 0.32138-0.96814-0.1082-1.3932 0 0-0.31209-0.30884-0.82568-0.81689-0.23654-0.234-0.5153-0.50956-0.82573-0.81664-0.2557-0.25295-0.53313-0.5273-0.82592-0.81694-0.2641-0.26125-0.54072-0.535-0.82568-0.8169-0.26899-0.26607-0.54544-0.53966-0.82568-0.81689-0.27295-0.27-0.54935-0.54323-0.82573-0.81663-0.27624-0.27327-0.55258-0.54675-0.82567-0.8169-0.28011-0.27708-0.55649-0.55091-0.82562-0.81714-0.28499-0.28191-0.56184-0.55571-0.82593-0.81696-0.2928-0.28964-0.57003-0.56369-0.82572-0.81663-0.31075-0.3074-0.58964-0.58311-0.82573-0.81664-0.51354-0.50799-0.82568-0.81689-0.82568-0.81689-0.25406-0.25125-0.59889-0.38731-0.92372-0.36445-0.09864 0.0071-0.20171-0.0081-0.3018-0.04309-8.96e-4 -3.33e-4 -0.0015-7.46e-4 -0.0024-9.98e-4 -9.98e-4 -1.21e-4 -0.0016 6e-5 -0.0027 1e-5 -0.10563-0.0081-0.20625-0.03513-0.29394-0.08083-0.28878-0.15048-0.65925-0.16321-0.99243-0.0341 0 0-0.40942 0.15881-1.0829 0.41992-0.30958 0.12004-0.67528 0.26167-1.0828 0.41966-0.33535 0.13002-0.69885 0.2708-1.0829 0.41968-0.34635 0.13428-0.70942 0.27496-1.0832 0.41987-0.35297 0.13684-0.71562 0.27776-1.083 0.42017-0.35816 0.13886-0.72063 0.27946-1.0829 0.41991-0.36247 0.14053-0.72489 0.28089-1.0829 0.41968-0.36754 0.14248-0.73015 0.28315-1.0829 0.41992-0.37372 0.14488-0.73656 0.28564-1.0829 0.41991-0.384 0.14887-0.74781 0.28985-1.0832 0.41987-0.40713 0.15784-0.77264 0.2994-1.0829 0.41967-0.67356 0.26113-1.0829 0.41992-1.0829 0.41992-0.37313 0.14464-0.64354 0.44518-0.7052 0.78377z" fill="#fff3f3" stroke="#f00" stroke-width=".52849"/>
    <path d="m92.319 107.15c0.14848-0.0532 0.27403-0.14569 0.36514-0.26907 0.198-0.26811 0.38348-0.5446 0.55635-0.82825 0.17441-0.28617 0.336-0.57945 0.4843-0.87923 0.1495-0.30223 0.28553-0.6111 0.40857-0.92575 0.12367-0.31629 0.23426-0.6389 0.33135-0.96691 0.09743-0.32913 0.18102-0.66332 0.25143-1.0023 0.07056-0.33965 0.12794-0.68403 0.17134-1.0325 0.04349-0.34888 0.07308-0.70133 0.0892-1.0566 0.01613-0.35549 0.01881-0.71426 0.0076-1.0751-0.01124-0.36032-0.03608-0.72291-0.07474-1.0873-0.03857-0.36323-0.09069-0.72843-0.15662-1.0941-0.06568-0.36443-0.14526-0.72918-0.23802-1.0938-0.09235-0.36297-0.19808-0.72589-0.31734-1.088-0.11844-0.35956-0.26964-0.71502-0.39538-1.0758-0.25912-0.74346-0.50575-1.4914-0.7397-2.2432-0.11352-0.36479-0.20342-0.74046-0.32209-1.1-0.11951-0.36201-0.2504-0.71664-0.39208-1.0633-0.14234-0.34829-0.29534-0.68883-0.45931-1.0208-0.16455-0.33318-0.33986-0.65776-0.52493-0.97268-0.18566-0.3159-0.38139-0.62213-0.58668-0.91846-0.20561-0.2968-0.42117-0.58362-0.64558-0.85977-0.22427-0.27597-0.45772-0.54168-0.7002-0.79626-0.24219-0.25426-0.49314-0.49699-0.7519-0.72804-0.25825-0.2306-0.52422-0.44951-0.79833-0.65613-0.27316-0.20591-0.55395-0.39946-0.84151-0.58014-0.28607-0.17975-0.57914-0.34712-0.87909-0.50113-0.29752-0.15277-0.60187-0.2924-0.9123-0.41869-0.30768-0.12518-0.62125-0.23711-0.9399-0.33485-0.48324-0.14804-0.99912 0.20574-1.1524 0.7903 0 0-0.11142 0.4247-0.29461 1.1235-0.08437 0.32185-0.18364 0.70104-0.29437 1.1234-0.09121 0.34792-0.19009 0.72536-0.29453 1.1237-0.09421 0.35934-0.19297 0.73578-0.29462 1.1235-0.09595 0.36599-0.19465 0.7422-0.29461 1.1235-0.09736 0.37139-0.19579 0.74737-0.29437 1.1234-0.09853 0.37586-0.1972 0.75192-0.29461 1.1235-0.0999 0.38113-0.19886 0.75739-0.29485 1.1236-0.10165 0.38776-0.20034 0.76442-0.29453 1.1237-0.10444 0.39841-0.20316 0.77551-0.29437 1.1234-0.11084 0.42282-0.21016 0.8022-0.29437 1.1234-0.18317 0.69874-0.29461 1.1235-0.29461 1.1235-0.09056 0.34566-0.03598 0.7123 0.14624 0.98219 0.05534 0.08195 0.09363 0.17886 0.11361 0.2829 1.59e-4 9.45e-4 1.28e-4 0.0017 2.53e-4 0.0026 4.13e-4 9.45e-4 9.96e-4 0.0014 0.0015 0.0023 0.04584 0.09551 0.07269 0.19619 0.07696 0.29498 0.01409 0.32533 0.18828 0.65253 0.46668 0.87652 0 0 0.34224 0.27516 0.90512 0.72788 0.25875 0.20809 0.56426 0.45397 0.90486 0.72792 0.28027 0.22541 0.58394 0.46982 0.90488 0.72796 0.28946 0.2328 0.59284 0.47689 0.9052 0.72812 0.29499 0.23727 0.59835 0.48087 0.90537 0.7278 0.29933 0.24075 0.60233 0.48436 0.90512 0.72789 0.30293 0.24363 0.6057 0.48732 0.90488 0.72796 0.30716 0.24705 0.61029 0.49074 0.90512 0.72787 0.31234 0.2512 0.61565 0.49506 0.90512 0.72788 0.32093 0.25811 0.62493 0.5027 0.9052 0.72812 0.34026 0.27366 0.64561 0.51943 0.90488 0.72795 0.56292 0.45277 0.90512 0.72788 0.90512 0.72788 0.31183 0.25081 0.70731 0.33474 1.0314 0.21883z" fill="#fff3f3" stroke="#f00" stroke-width=".52849"/>
    <g transform="matrix(.10134 -.48725 .48725 .10134 29.953 137.3)" fill="#ff5858" stroke-width="1.0619">
     <path d="m69.258 78.027c-2e-5 1.859 2.3139 3.3547 5.088 3.3864 2.7741 0.03171 8.5388-3.3104 8.6688-3.3863-0.12996-0.07591-5.8946-3.4181-8.6687-3.3864-2.7741 0.03167-5.0881 1.5273-5.0881 3.3863z"/>
     <path d="m69.836 62.045c-0.92952 1.6099 0.32656 4.0622 2.7132 5.4767 2.3866 1.4145 9.05 1.4025 9.2005 1.4018-0.0746-0.13072-3.3958-5.9075-5.8141-7.2671-2.4183-1.3596-5.1701-1.2214-6.0996 0.38858z"/>
     <path d="m69.836 94.009c0.92949 1.61 3.6813 1.7483 6.0996 0.3887 2.4183-1.3596 5.7396-7.1362 5.8142-7.267-0.15051-7.62e-4 -6.8139-0.01289-9.2005 1.4016-2.3866 1.4145-3.6428 3.8667-2.7133 5.4767z"/>
    </g>
    <g transform="matrix(.99758 0 0 .99758 .18811 .23603)" fill="#ff5858" stroke-width=".52977">
     <path d="m91.244 93.275c-0.29044-0.88078-1.6204-1.2279-2.9397-0.80951-1.3193 0.41839-3.5284 2.9025-3.5781 2.9587 0.07344 0.01566 3.3268 0.69852 4.6362 0.2501 1.3094-0.44842 2.1721-1.5186 1.8816-2.3993z"/>
     <path d="m93.467 100.94c0.18886-0.90799-0.78939-1.8736-2.1411-2.1709-1.3517-0.29731-4.5069 0.74943-4.5781 0.7733 0.05577 0.05028 2.5319 2.2683 3.89 2.5347 1.3582 0.26635 2.6403-0.22908 2.8292-1.1371z"/>
     <path d="m88.473 85.793c-0.69192-0.61756-2.0173-0.25318-2.9506 0.76881-0.93334 1.022-1.6044 4.2778-1.6194 4.3514 0.07143-0.02315 3.2304-1.0585 4.1401-2.1015 0.90976-1.043 1.1218-2.4011 0.42986-3.0187z"/>
    </g>
    <circle transform="rotate(41.75)" cx="123.13" cy="21.042" r=".72638" fill="url(#radialGradient4615)"/>
   </g>
  </g>
 </g>
</svg>
