<?xml version="1.0" encoding="UTF-8" standalone="no"?>
<!-- Created with Inkscape (http://www.inkscape.org/) -->

<svg
   xmlns:dc="http://purl.org/dc/elements/1.1/"
   xmlns:cc="http://creativecommons.org/ns#"
   xmlns:rdf="http://www.w3.org/1999/02/22-rdf-syntax-ns#"
   xmlns:svg="http://www.w3.org/2000/svg"
   xmlns="http://www.w3.org/2000/svg"
   xmlns:sodipodi="http://sodipodi.sourceforge.net/DTD/sodipodi-0.dtd"
   xmlns:inkscape="http://www.inkscape.org/namespaces/inkscape"
   width="75.013954"
   height="69.986145"
   viewBox="0 0 19.847441 18.517168"
   version="1.1"
   id="svg892"
   inkscape:version="0.92.0 r"
   sodipodi:docname="walnut.svg">
  <defs
     id="defs886">
    <inkscape:path-effect
       effect="spiro"
       id="path-effect5607"
       is_visible="true" />
    <inkscape:perspective
       sodipodi:type="inkscape:persp3d"
       inkscape:vp_x="0 : 6.6145835 : 1"
       inkscape:vp_y="0 : 1000 : 0"
       inkscape:vp_z="13.229166 : 6.6145835 : 1"
       inkscape:persp3d-origin="6.614583 : 4.4097223 : 1"
       id="perspective894" />
  </defs>
  <sodipodi:namedview
     id="base"
     pagecolor="#ffffff"
     bordercolor="#666666"
     borderopacity="1.0"
     inkscape:pageopacity="0.0"
     inkscape:pageshadow="2"
     inkscape:zoom="11.186667"
     inkscape:cx="25.417349"
     inkscape:cy="34.640849"
     inkscape:document-units="mm"
     inkscape:current-layer="layer1"
     showgrid="false"
     units="px"
     inkscape:window-width="1920"
     inkscape:window-height="1016"
     inkscape:window-x="1920"
     inkscape:window-y="27"
     inkscape:window-maximized="1"
     showguides="true"
     inkscape:snap-nodes="true"
     inkscape:snap-bbox="false"
     inkscape:snap-center="true"
     inkscape:bbox-paths="false"
     inkscape:bbox-nodes="true"
     inkscape:snap-bbox-edge-midpoints="true"
     inkscape:snap-object-midpoints="true"
     inkscape:snap-global="true"
     fit-margin-top="0"
     fit-margin-left="0"
     fit-margin-right="0"
     fit-margin-bottom="0"
     inkscape:guide-bbox="true">
    <sodipodi:guide
       position="9.9240848,14.911077"
       orientation="1,0"
       id="guide4522"
       inkscape:locked="false" />
  </sodipodi:namedview>
  <metadata
     id="metadata889">
    <rdf:RDF>
      <cc:Work
         rdf:about="">
        <dc:format>image/svg+xml</dc:format>
        <dc:type
           rdf:resource="http://purl.org/dc/dcmitype/StillImage" />
        <dc:title />
      </cc:Work>
    </rdf:RDF>
  </metadata>
  <g
     inkscape:label="Layer 1"
     inkscape:groupmode="layer"
     id="layer1"
     transform="translate(0.61034507,-278.03816)"
     style="display:inline">
    <path
       style="opacity:1;vector-effect:none;fill:#ad9a6b;fill-opacity:0.99606299;stroke:#725d29;stroke-width:2.00000024;stroke-linecap:round;stroke-linejoin:round;stroke-miterlimit:4;stroke-dasharray:none;stroke-dashoffset:0;stroke-opacity:1"
       d="M 18.566406 0.99414062 C 17.741335 1.0168178 16.942211 1.2802314 16.273438 1.7578125 C 16.022382 1.7101905 15.767342 1.6859248 15.511719 1.6855469 C 13.251367 1.6859626 11.418407 3.4941212 11.417969 5.7246094 C 11.419669 5.7967984 11.424056 5.8692173 11.429688 5.9414062 C 11.397108 5.9803354 11.364501 6.0192867 11.332031 6.0585938 C 10.908035 5.9149717 10.461996 5.8413556 10.013672 5.8398438 C 7.7533197 5.8402595 5.9223131 7.6484181 5.921875 9.8789062 C 5.9221957 10.96639 6.3659078 12.007704 7.1542969 12.767578 C 6.3672462 13.526167 5.9236479 14.566712 5.921875 15.652344 C 5.923115 16.019714 5.974887 16.384895 6.0761719 16.738281 C 4.5039702 17.341494 3.4666738 18.833467 3.4648438 20.498047 C 3.4661038 21.53016 3.8684797 22.522306 4.5878906 23.271484 C 4.5732676 23.358791 4.5592119 23.445896 4.5449219 23.533203 C 3.7788091 24.289713 3.3468346 25.315273 3.3457031 26.384766 C 3.3478531 26.854939 3.4330302 27.32245 3.5976562 27.763672 C 2.7146188 28.411936 2.1347948 29.382839 1.9863281 30.458984 C 1.3546313 31.190134 1.0077182 32.119284 1.0078125 33.080078 C 1.0095125 33.747996 1.1778621 34.404736 1.5 34.992188 C 1.1778622 35.579639 1.0095077 36.238332 1.0078125 36.90625 C 1.0077091 37.867081 1.3546228 38.796194 1.9863281 39.527344 C 2.1348046 40.603489 2.7146277 41.574392 3.5976562 42.222656 C 3.4330302 42.663878 3.3478556 43.129436 3.3457031 43.599609 C 3.3468331 44.669102 3.7788091 45.694662 4.5449219 46.451172 C 4.5592123 46.538479 4.573268 46.625584 4.5878906 46.712891 C 3.8684797 47.462069 3.4660987 48.456168 3.4648438 49.488281 C 3.4666738 51.152861 4.5039702 52.644834 6.0761719 53.248047 C 5.9748873 53.601433 5.9231166 53.966728 5.921875 54.333984 C 5.923645 55.419616 6.3672462 56.460161 7.1542969 57.21875 C 6.3659078 57.978624 5.9221957 59.019938 5.921875 60.107422 C 5.9223131 62.33791 7.7533197 64.146069 10.013672 64.146484 C 10.461996 64.145086 10.908035 64.069403 11.332031 63.925781 C 11.364497 63.965088 11.397097 64.005993 11.429688 64.044922 C 11.424094 64.117111 11.419632 64.187577 11.417969 64.259766 C 11.418407 66.490254 13.251367 68.298412 15.511719 68.298828 C 15.767343 68.298299 16.022382 68.272295 16.273438 68.226562 C 16.970869 68.723684 17.809573 68.991999 18.669922 68.992188 C 18.76766 68.9906 18.865522 68.984122 18.962891 68.976562 C 19.060251 68.987901 19.158121 68.992188 19.255859 68.992188 C 19.911197 68.98958 20.481564 68.548737 21.136719 68.533203 C 24.499024 68.453455 30.750653 68.012642 33.996094 67.03125 C 36.079989 66.401127 37.081163 62.213384 37.507812 56.357422 L 37.507812 25.160156 C 37.081177 19.304005 36.08003 3.5832478 33.996094 2.953125 C 32.373374 2.4624289 29.484908 3.4780612 27.251953 3.2070312 C 25.146703 2.9511572 22.817872 1.492999 21.136719 1.453125 C 20.481564 1.4380069 19.911197 0.9967485 19.255859 0.99414062 C 19.158121 0.99414062 19.060244 0.99751996 18.962891 1.0097656 C 18.865522 1.0022066 18.767657 0.99414062 18.669922 0.99414062 C 18.635604 0.99372488 18.600743 0.99372488 18.566406 0.99414062 z M 55.761719 0.99414062 C 55.106379 0.9967485 54.536014 1.4380069 53.880859 1.453125 C 52.199703 1.492999 49.870875 2.9511572 47.765625 3.2070312 C 45.532669 3.4780612 42.644206 2.4624289 41.021484 2.953125 C 38.937549 3.5832478 37.936402 19.304005 37.509766 25.160156 L 37.509766 56.357422 C 37.936416 62.213384 38.93759 66.401127 41.021484 67.03125 C 44.266927 68.012642 50.518554 68.453455 53.880859 68.533203 C 54.536014 68.548737 55.106379 68.98958 55.761719 68.992188 C 55.859457 68.992188 55.957327 68.987901 56.054688 68.976562 C 56.152086 68.984122 56.249918 68.9906 56.347656 68.992188 C 57.208005 68.991999 58.046708 68.723684 58.744141 68.226562 C 58.995196 68.272295 59.25025 68.298299 59.505859 68.298828 C 61.76621 68.298412 63.599171 66.490254 63.599609 64.259766 C 63.598098 64.187577 63.59356 64.117111 63.587891 64.044922 C 63.62047 64.005993 63.653043 63.965088 63.685547 63.925781 C 64.109542 64.069403 64.555582 64.145086 65.003906 64.146484 C 67.264256 64.146069 69.095265 62.33791 69.095703 60.107422 C 69.095382 59.019938 68.651668 57.978624 67.863281 57.21875 C 68.65033 56.460161 69.093934 55.419616 69.095703 54.333984 C 69.094494 53.966728 69.042698 53.601433 68.941406 53.248047 C 70.513607 52.644834 71.550901 51.152861 71.552734 49.488281 C 71.55148 48.456168 71.149098 47.462069 70.429688 46.712891 C 70.444314 46.625584 70.458294 46.538479 70.472656 46.451172 C 71.23877 45.694662 71.670745 44.669102 71.671875 43.599609 C 71.669721 43.129436 71.584558 42.663878 71.419922 42.222656 C 72.302948 41.574392 72.88279 40.603489 73.03125 39.527344 C 73.662956 38.796194 74.009871 37.867081 74.009766 36.90625 C 74.008072 36.238332 73.839707 35.579639 73.517578 34.992188 C 73.839722 34.404736 74.008065 33.747996 74.009766 33.080078 C 74.00986 32.119284 73.662949 31.190134 73.03125 30.458984 C 72.882783 29.382839 72.302959 28.411936 71.419922 27.763672 C 71.584558 27.32245 71.669724 26.854939 71.671875 26.384766 C 71.670745 25.315273 71.23877 24.289713 70.472656 23.533203 C 70.458407 23.445896 70.444428 23.358791 70.429688 23.271484 C 71.149098 22.522306 71.551472 21.53016 71.552734 20.498047 C 71.550901 18.833467 70.513607 17.341494 68.941406 16.738281 C 69.04266 16.384895 69.094463 16.019714 69.095703 15.652344 C 69.093931 14.566712 68.65033 13.526167 67.863281 12.767578 C 68.651668 12.007704 69.095382 10.96639 69.095703 9.8789062 C 69.095265 7.6484181 67.264256 5.8402595 65.003906 5.8398438 C 64.555582 5.8413556 64.109542 5.9149717 63.685547 6.0585938 C 63.653081 6.0192867 63.620395 5.9803354 63.587891 5.9414062 C 63.59356 5.8692173 63.597909 5.7967984 63.599609 5.7246094 C 63.599171 3.4941212 61.76621 1.6859626 59.505859 1.6855469 C 59.250235 1.6859248 58.995215 1.7101905 58.744141 1.7578125 C 58.075365 1.2802314 57.276247 1.0168178 56.451172 0.99414062 C 56.416816 0.99372488 56.38205 0.99372488 56.347656 0.99414062 C 56.249918 0.99414062 56.152048 1.0022066 56.054688 1.0097656 C 55.957365 0.99751996 55.859457 0.99414062 55.761719 0.99414062 z "
       transform="matrix(0.26458333,0,0,0.26458333,-0.61034507,278.03816)"
       id="path5525-6" />
    <path
       style="fill:none;stroke:#8a784a;stroke-width:0.5291667;stroke-linecap:round;stroke-linejoin:round;stroke-miterlimit:4;stroke-dasharray:none;stroke-opacity:1"
       d="m 0.7249601,286.97524 c 0.7117939,2.74848 1.8460855,2.63162 0.9694642,3.86579"
       id="path4708"
       inkscape:connector-curvature="0"
       sodipodi:nodetypes="cc" />
    <path
       style="fill:none;stroke:#8a784a;stroke-width:0.5291667;stroke-linecap:round;stroke-linejoin:round;stroke-miterlimit:4;stroke-dasharray:none;stroke-opacity:1"
       d="m 3.1718214,288.27143 c 0,0 0.8355842,4.24489 -0.3404232,5.34429"
       id="path4710"
       inkscape:connector-curvature="0" />
    <path
       style="fill:none;stroke:#8a784a;stroke-width:0.5291667;stroke-linecap:round;stroke-linejoin:round;stroke-miterlimit:4;stroke-dasharray:none;stroke-opacity:1"
       d="m 6.5991545,286.99849 c -0.078864,2.83805 -1.2105497,2.97792 -0.08004,3.98469"
       id="path4708-3"
       inkscape:connector-curvature="0"
       sodipodi:nodetypes="cc" />
    <path
       style="fill:none;stroke:#8a784a;stroke-width:0.5291667;stroke-linecap:round;stroke-linejoin:round;stroke-miterlimit:4;stroke-dasharray:none;stroke-opacity:1"
       d="m 7.6992252,290.62638 c 0.6808462,0.58023 1.0212694,1.83233 0.6498989,2.80958 -0.3713709,0.97722 -1.8259061,2.56526 -2.475805,1.31317"
       id="path5609"
       inkscape:connector-curvature="0"
       sodipodi:nodetypes="ccc" />
    <path
       style="fill:none;stroke:#8a784a;stroke-width:0.5291667;stroke-linecap:round;stroke-linejoin:round;stroke-miterlimit:4;stroke-dasharray:none;stroke-opacity:1"
       d="m 4.6254537,293.64682 c 0,0 0.2844817,1.68434 -0.8753294,1.66273"
       id="path5620"
       inkscape:connector-curvature="0"
       sodipodi:nodetypes="cc" />
    <path
       style="fill:none;stroke:#8a784a;stroke-width:0.5291667;stroke-linecap:round;stroke-linejoin:round;stroke-miterlimit:4;stroke-dasharray:none;stroke-opacity:1"
       d="m 4.2821552,287.99018 c 0,0 1.5492214,-2.66598 0.6020149,-3.70361"
       id="path4710-1"
       inkscape:connector-curvature="0" />
    <path
       style="fill:none;stroke:#8a784a;stroke-width:0.5291667;stroke-linecap:round;stroke-linejoin:round;stroke-miterlimit:4;stroke-dasharray:none;stroke-opacity:1"
       d="m 2.1149545,286.00143 c 0.139264,-0.30539 -0.1929433,-1.01014 -0.07737,-1.49639 0.098613,-0.41489 1.1760073,0.0762 0.6344248,-1.11468"
       id="path5015-0"
       inkscape:connector-curvature="0"
       sodipodi:nodetypes="cac" />
    <path
       style="fill:none;stroke:#8a784a;stroke-width:0.5291667;stroke-linecap:round;stroke-linejoin:round;stroke-miterlimit:4;stroke-dasharray:none;stroke-opacity:1"
       d="m 7.7337282,286.81397 c -0.7117938,-2.7485 -1.8460855,-2.63163 -0.9694642,-3.8658"
       id="path4708-3-3"
       inkscape:connector-curvature="0"
       sodipodi:nodetypes="cc" />
    <path
       style="fill:none;stroke:#8a784a;stroke-width:0.5291667;stroke-linecap:round;stroke-linejoin:round;stroke-miterlimit:4;stroke-dasharray:none;stroke-opacity:1"
       d="m 2.2232708,282.314 c 0,0 -0.4642133,-3.38981 1.8568538,-0.96198"
       id="path5617-4"
       inkscape:connector-curvature="0" />
    <path
       style="fill:none;stroke:#8a784a;stroke-width:0.5291667;stroke-linecap:round;stroke-linejoin:round;stroke-miterlimit:4;stroke-dasharray:none;stroke-opacity:1"
       d="m 6.5324586,279.80994 c 0,0 2.0340433,1.56101 2.1049985,5.46354"
       id="path4524"
       inkscape:connector-curvature="0" />
    <path
       style="fill:none;stroke:#8a784a;stroke-width:0.5291667;stroke-linecap:round;stroke-linejoin:round;stroke-miterlimit:4;stroke-dasharray:none;stroke-opacity:1"
       d="m 17.902519,286.97524 c -0.711794,2.74848 -1.846086,2.63162 -0.969464,3.86579"
       id="path4708-7"
       inkscape:connector-curvature="0"
       sodipodi:nodetypes="cc" />
    <path
       style="fill:none;stroke:#8a784a;stroke-width:0.5291667;stroke-linecap:round;stroke-linejoin:round;stroke-miterlimit:4;stroke-dasharray:none;stroke-opacity:1"
       d="m 15.455658,288.27143 c 0,0 -0.835585,4.24489 0.340423,5.34429"
       id="path4710-9"
       inkscape:connector-curvature="0" />
    <path
       style="fill:none;stroke:#8a784a;stroke-width:0.5291667;stroke-linecap:round;stroke-linejoin:round;stroke-miterlimit:4;stroke-dasharray:none;stroke-opacity:1"
       d="m 12.028325,286.99849 c 0.07886,2.83805 1.210549,2.97792 0.08004,3.98469"
       id="path4708-3-2"
       inkscape:connector-curvature="0"
       sodipodi:nodetypes="cc" />
    <path
       style="fill:none;stroke:#8a784a;stroke-width:0.5291667;stroke-linecap:round;stroke-linejoin:round;stroke-miterlimit:4;stroke-dasharray:none;stroke-opacity:1"
       d="m 10.928254,290.62638 c -0.680846,0.58023 -1.0212696,1.83233 -0.649899,2.80958 0.371371,0.97722 1.825906,2.56526 2.475805,1.31317"
       id="path5609-0"
       inkscape:connector-curvature="0"
       sodipodi:nodetypes="ccc" />
    <path
       style="fill:none;stroke:#8a784a;stroke-width:0.5291667;stroke-linecap:round;stroke-linejoin:round;stroke-miterlimit:4;stroke-dasharray:none;stroke-opacity:1"
       d="m 14.002025,293.64682 c 0,0 -0.284481,1.68434 0.87533,1.66273"
       id="path5620-2"
       inkscape:connector-curvature="0"
       sodipodi:nodetypes="cc" />
    <path
       style="fill:none;stroke:#8a784a;stroke-width:0.5291667;stroke-linecap:round;stroke-linejoin:round;stroke-miterlimit:4;stroke-dasharray:none;stroke-opacity:1"
       d="m 14.345324,287.99018 c 0,0 -1.549222,-2.66598 -0.602015,-3.70361"
       id="path4710-1-3"
       inkscape:connector-curvature="0" />
    <path
       style="fill:none;stroke:#8a784a;stroke-width:0.5291667;stroke-linecap:round;stroke-linejoin:round;stroke-miterlimit:4;stroke-dasharray:none;stroke-opacity:1"
       d="m 16.512525,286.00143 c -0.139265,-0.30539 0.192943,-1.01014 0.07737,-1.49639 -0.09861,-0.41489 -1.176007,0.0762 -0.634424,-1.11468"
       id="path5015-0-7"
       inkscape:connector-curvature="0"
       sodipodi:nodetypes="cac" />
    <path
       style="fill:none;stroke:#8a784a;stroke-width:0.5291667;stroke-linecap:round;stroke-linejoin:round;stroke-miterlimit:4;stroke-dasharray:none;stroke-opacity:1"
       d="m 10.893751,286.81397 c 0.711794,-2.7485 1.846085,-2.63163 0.969464,-3.8658"
       id="path4708-3-3-5"
       inkscape:connector-curvature="0"
       sodipodi:nodetypes="cc" />
    <path
       style="fill:none;stroke:#8a784a;stroke-width:0.5291667;stroke-linecap:round;stroke-linejoin:round;stroke-miterlimit:4;stroke-dasharray:none;stroke-opacity:1"
       d="m 16.404208,282.314 c 0,0 0.464213,-3.38981 -1.856854,-0.96198"
       id="path5617-4-9"
       inkscape:connector-curvature="0" />
    <path
       style="fill:none;stroke:#8a784a;stroke-width:0.5291667;stroke-linecap:round;stroke-linejoin:round;stroke-miterlimit:4;stroke-dasharray:none;stroke-opacity:1"
       d="m 12.09502,279.80994 c 0,0 -2.034043,1.56101 -2.1049981,5.46354"
       id="path4524-2"
       inkscape:connector-curvature="0" />
  </g>
</svg>
