<?xml version="1.0" encoding="UTF-8" standalone="no"?>
<!-- Created with Inkscape (http://www.inkscape.org/) -->

<svg
   xmlns:dc="http://purl.org/dc/elements/1.1/"
   xmlns:cc="http://creativecommons.org/ns#"
   xmlns:rdf="http://www.w3.org/1999/02/22-rdf-syntax-ns#"
   xmlns:svg="http://www.w3.org/2000/svg"
   xmlns="http://www.w3.org/2000/svg"
   xmlns:sodipodi="http://sodipodi.sourceforge.net/DTD/sodipodi-0.dtd"
   xmlns:inkscape="http://www.inkscape.org/namespaces/inkscape"
   width="75.013954"
   height="69.986145"
   viewBox="0 0 19.847441 18.517168"
   version="1.1"
   id="svg892"
   inkscape:version="0.92.0 r"
   sodipodi:docname="walnut.svg">
  <defs
     id="defs886">
    <inkscape:path-effect
       effect="spiro"
       id="path-effect5607"
       is_visible="true" />
    <inkscape:perspective
       sodipodi:type="inkscape:persp3d"
       inkscape:vp_x="0 : 6.6145835 : 1"
       inkscape:vp_y="0 : 1000 : 0"
       inkscape:vp_z="13.229166 : 6.6145835 : 1"
       inkscape:persp3d-origin="6.614583 : 4.4097223 : 1"
       id="perspective894" />
  </defs>
  <sodipodi:namedview
     id="base"
     pagecolor="#ffffff"
     bordercolor="#666666"
     borderopacity="1.0"
     inkscape:pageopacity="0.0"
     inkscape:pageshadow="2"
     inkscape:zoom="11.186667"
     inkscape:cx="37.507011"
     inkscape:cy="34.99312"
     inkscape:document-units="mm"
     inkscape:current-layer="layer1"
     showgrid="false"
     units="px"
     inkscape:window-width="1920"
     inkscape:window-height="1016"
     inkscape:window-x="1920"
     inkscape:window-y="27"
     inkscape:window-maximized="1"
     showguides="false"
     inkscape:snap-nodes="true"
     inkscape:snap-bbox="false"
     inkscape:snap-center="true"
     inkscape:bbox-paths="false"
     inkscape:bbox-nodes="true"
     inkscape:snap-bbox-edge-midpoints="true"
     inkscape:snap-object-midpoints="true"
     inkscape:snap-global="false"
     fit-margin-top="0"
     fit-margin-left="0"
     fit-margin-right="0"
     fit-margin-bottom="0" />
  <metadata
     id="metadata889">
    <rdf:RDF>
      <cc:Work
         rdf:about="">
        <dc:format>image/svg+xml</dc:format>
        <dc:type
           rdf:resource="http://purl.org/dc/dcmitype/StillImage" />
        <dc:title></dc:title>
      </cc:Work>
    </rdf:RDF>
  </metadata>
  <g
     inkscape:label="Layer 1"
     inkscape:groupmode="layer"
     id="layer1"
     transform="translate(0.61034507,-278.03816)"
     style="display:inline">
    <g
       id="g4678"
       transform="matrix(1.0279621,0,0,1.0138124,-0.26042099,-3.968258)"
       style="stroke-width:0.97956359">
      <path
         id="path5525"
         d="m 4.4383433,278.42356 a 1.0537009,1.0542949 0 0 0 -0.5902374,0.19965 1.0537009,1.0542949 0 0 0 -0.1960481,-0.0188 1.0537009,1.0542949 0 0 0 -1.0534969,1.05409 1.0537009,1.0542949 0 0 0 0.00279,0.0565 3.9739576,8.7355868 0 0 0 -0.025117,0.0307 1.0537009,1.0542949 0 0 0 -0.3390725,-0.0572 1.0537009,1.0542949 0 0 0 -1.053497,1.05409 1.0537009,1.0542949 0 0 0 0.3174445,0.75392 1.0537009,1.0542949 0 0 0 -0.3174445,0.75252 1.0537009,1.0542949 0 0 0 0.039768,0.28342 1.0537009,1.0542949 0 0 0 -0.67186593,0.98149 1.0537009,1.0542949 0 0 0 0.28883957,0.7239 3.9739576,8.7355868 0 0 0 -0.0111629,0.0684 1.0537009,1.0542949 0 0 0 -0.30837461,0.74415 1.0537009,1.0542949 0 0 0 0.0648843,0.35951 1.0537009,1.0542949 0 0 0 -0.41511965,0.70366 1.0537009,1.0542949 0 0 0 -0.25186254,0.68411 1.0537009,1.0542949 0 0 0 0.1269778,0.49912 1.0537009,1.0542949 0 0 0 -0.1269778,0.49912 1.0537009,1.0542949 0 0 0 0.25186254,0.68412 1.0537009,1.0542949 0 0 0 0.41511965,0.70365 1.0537009,1.0542949 0 0 0 -0.0648843,0.35951 1.0537009,1.0542949 0 0 0 0.30837461,0.74415 3.9739576,8.7355868 0 0 0 0.0111629,0.0684 1.0537009,1.0542949 0 0 0 -0.28883957,0.7239 1.0537009,1.0542949 0 0 0 0.67186593,0.98149 1.0537009,1.0542949 0 0 0 -0.039768,0.28342 1.0537009,1.0542949 0 0 0 0.3174445,0.75252 1.0537009,1.0542949 0 0 0 -0.3174445,0.75392 1.0537009,1.0542949 0 0 0 1.053497,1.05409 1.0537009,1.0542949 0 0 0 0.3390725,-0.0572 3.9739576,8.7355868 0 0 0 0.025116,0.0307 1.0537009,1.0542949 0 0 0 -0.00279,0.0565 1.0537009,1.0542949 0 0 0 1.0534969,1.05409 1.0537009,1.0542949 0 0 0 0.1960481,-0.0188 1.0537009,1.0542949 0 0 0 0.6167493,0.19964 1.0537009,1.0542949 0 0 0 0.075349,-0.004 c 0.025058,0.003 0.050191,0.004 0.07535,0.004 0.1686749,-6.7e-4 0.315562,-0.11601 0.4841898,-0.12006 0.8654112,-0.0208 2.4744629,-0.1355 3.3097947,-0.39162 0.5363659,-0.16445 0.7943789,-1.25773 0.9041934,-2.78601 0.1098167,1.52825 0.3671363,2.62156 0.9034949,2.78601 0.835332,0.25612 2.444383,0.37081 3.309795,0.39162 0.168627,0.004 0.315515,0.11939 0.48419,0.12006 0.02515,0 0.05029,-0.002 0.07535,-0.004 a 1.0537009,1.0542949 0 0 0 0.07535,0.004 1.0537009,1.0542949 0 0 0 0.61675,-0.19964 1.0537009,1.0542949 0 0 0 0.196048,0.0188 1.0537009,1.0542949 0 0 0 1.053497,-1.05409 1.0537009,1.0542949 0 0 0 -0.0028,-0.0565 3.9739576,8.7355868 0 0 0 0.02512,-0.0307 1.0537009,1.0542949 0 0 0 0.339073,0.0572 1.0537009,1.0542949 0 0 0 1.053497,-1.05409 1.0537009,1.0542949 0 0 0 -0.317445,-0.75392 1.0537009,1.0542949 0 0 0 0.317445,-0.75252 1.0537009,1.0542949 0 0 0 -0.03977,-0.28342 1.0537009,1.0542949 0 0 0 0.671866,-0.98149 1.0537009,1.0542949 0 0 0 -0.28884,-0.7239 3.9739576,8.7355868 0 0 0 0.01116,-0.0684 1.0537009,1.0542949 0 0 0 0.308375,-0.74415 1.0537009,1.0542949 0 0 0 -0.06489,-0.35951 1.0537009,1.0542949 0 0 0 0.41512,-0.70365 1.0537009,1.0542949 0 0 0 0.251863,-0.68412 1.0537009,1.0542949 0 0 0 -0.126978,-0.49912 1.0537009,1.0542949 0 0 0 0.126978,-0.49912 1.0537009,1.0542949 0 0 0 -0.251863,-0.68411 1.0537009,1.0542949 0 0 0 -0.41512,-0.70366 1.0537009,1.0542949 0 0 0 0.06489,-0.35951 1.0537009,1.0542949 0 0 0 -0.308375,-0.74415 3.9739576,8.7355868 0 0 0 -0.01116,-0.0684 1.0537009,1.0542949 0 0 0 0.28884,-0.7239 1.0537009,1.0542949 0 0 0 -0.67187,-0.98149 1.0537009,1.0542949 0 0 0 0.03977,-0.28342 1.0537009,1.0542949 0 0 0 -0.317444,-0.75252 1.0537009,1.0542949 0 0 0 0.317444,-0.75392 1.0537009,1.0542949 0 0 0 -1.053497,-1.05409 1.0537009,1.0542949 0 0 0 -0.339072,0.0572 3.9739576,8.7355868 0 0 0 -0.02512,-0.0307 1.0537009,1.0542949 0 0 0 0.0028,-0.0565 1.0537009,1.0542949 0 0 0 -1.053497,-1.05409 1.0537009,1.0542949 0 0 0 -0.196048,0.0188 1.0537009,1.0542949 0 0 0 -0.616749,-0.19965 1.0537009,1.0542949 0 0 0 -0.07535,0.004 c -0.02506,-0.003 -0.0502,-0.004 -0.07535,-0.004 -0.168675,6.8e-4 -0.315562,0.11602 -0.48419,0.12007 -0.865411,0.0208 -2.474463,0.1355 -3.309795,0.39162 -0.5363687,0.16445 -0.7936815,1.25771 -0.9034946,2.78601 -0.109811,-1.52833 -0.3678168,-2.62156 -0.9041934,-2.78601 -0.8353318,-0.25612 -2.4443835,-0.37082 -3.3097948,-0.39162 -0.1686277,-0.004 -0.3155148,-0.11939 -0.4841897,-0.12007 -0.025158,0 -0.050292,10e-4 -0.07535,0.004 a 1.0537009,1.0542949 0 0 0 -0.075349,-0.004 1.0537009,1.0542949 0 0 0 -0.026512,0 z"
         style="opacity:1;vector-effect:none;fill:#806e43;fill-opacity:0.99606299;stroke:#54441c;stroke-width:0.51835251;stroke-linecap:round;stroke-linejoin:round;stroke-miterlimit:4;stroke-dasharray:none;stroke-dashoffset:0;stroke-opacity:1"
         inkscape:connector-curvature="0" />
      <path
         sodipodi:nodetypes="cc"
         inkscape:connector-curvature="0"
         id="path4708"
         d="m 0.91256064,287.79615 c 0.69243206,2.71104 1.79586926,2.59577 0.94309336,3.81312"
         style="fill:none;stroke:#5e502f;stroke-width:0.51835251;stroke-linecap:round;stroke-linejoin:round;stroke-miterlimit:4;stroke-dasharray:none;stroke-opacity:1" />
      <path
         inkscape:connector-curvature="0"
         id="path4710"
         d="m 3.5919716,287.95487 c 0,0 0.8128551,4.18706 -0.3311632,5.27148"
         style="fill:none;stroke:#5e502f;stroke-width:0.51835251;stroke-linecap:round;stroke-linejoin:round;stroke-miterlimit:4;stroke-dasharray:none;stroke-opacity:1" />
      <path
         sodipodi:nodetypes="cac"
         inkscape:connector-curvature="0"
         id="path5015"
         d="m 2.402795,287.78109 c 0.1354758,0.30122 -0.187695,0.99637 -0.075265,1.47599 0.095931,0.40924 1.1440181,-0.0752 0.6171675,1.09949"
         style="fill:none;stroke:#5e502f;stroke-width:0.51835251;stroke-linecap:round;stroke-linejoin:round;stroke-miterlimit:4;stroke-dasharray:none;stroke-opacity:1" />
      <path
         sodipodi:nodetypes="cc"
         inkscape:connector-curvature="0"
         id="path4708-3"
         d="m 8.1678377,287.79615 c -0.692432,2.71104 -1.7958692,2.59577 -0.9430933,3.81312"
         style="fill:none;stroke:#5e502f;stroke-width:0.51835251;stroke-linecap:round;stroke-linejoin:round;stroke-miterlimit:4;stroke-dasharray:none;stroke-opacity:1" />
      <path
         inkscape:connector-curvature="0"
         id="path4710-6"
         d="m 5.4884268,287.95487 c 0,0 -0.8128552,4.18706 0.3311632,5.27148"
         style="fill:none;stroke:#5e502f;stroke-width:0.51835251;stroke-linecap:round;stroke-linejoin:round;stroke-miterlimit:4;stroke-dasharray:none;stroke-opacity:1" />
      <path
         sodipodi:nodetypes="cac"
         inkscape:connector-curvature="0"
         id="path5015-5"
         d="m 6.6776034,287.78109 c -0.1354758,0.30122 0.187695,0.99637 0.075265,1.47599 -0.095931,0.40924 -1.1440181,-0.0752 -0.6171675,1.09949"
         style="fill:none;stroke:#5e502f;stroke-width:0.51835251;stroke-linecap:round;stroke-linejoin:round;stroke-miterlimit:4;stroke-dasharray:none;stroke-opacity:1" />
      <path
         sodipodi:nodetypes="ccsc"
         inkscape:connector-curvature="0"
         id="path5609"
         d="m 7.9271984,290.62767 c 0.6623261,0.57233 0.9934893,1.80737 0.6322207,2.7713 -0.3612691,0.96391 -1.7762388,2.53031 -2.4084595,1.29528 -0.6322205,-1.23504 1.0235954,-0.90369 1.0235954,-0.90369"
         style="fill:none;stroke:#5e502f;stroke-width:0.51835251;stroke-linecap:round;stroke-linejoin:round;stroke-miterlimit:4;stroke-dasharray:none;stroke-opacity:1" />
      <path
         inkscape:connector-curvature="0"
         id="path5617"
         d="m 2.5081649,292.37479 c 0,0 -0.451586,3.34362 1.8063446,0.94887"
         style="fill:none;stroke:#5e502f;stroke-width:0.51835251;stroke-linecap:round;stroke-linejoin:round;stroke-miterlimit:4;stroke-dasharray:none;stroke-opacity:1" />
      <path
         sodipodi:nodetypes="cc"
         inkscape:connector-curvature="0"
         id="path5620"
         d="m 5.0290713,293.60696 c 0,0 0.2767434,1.66139 -0.8515191,1.64008"
         style="fill:none;stroke:#5e502f;stroke-width:0.51835251;stroke-linecap:round;stroke-linejoin:round;stroke-miterlimit:4;stroke-dasharray:none;stroke-opacity:1" />
      <path
         sodipodi:nodetypes="cc"
         inkscape:connector-curvature="0"
         id="path4708-6"
         d="m 17.714283,287.79615 c -0.692432,2.71104 -1.79587,2.59577 -0.943093,3.81312"
         style="fill:none;stroke:#5e502f;stroke-width:0.51835251;stroke-linecap:round;stroke-linejoin:round;stroke-miterlimit:4;stroke-dasharray:none;stroke-opacity:1" />
      <path
         inkscape:connector-curvature="0"
         id="path4710-3"
         d="m 15.034871,287.95487 c 0,0 -0.812855,4.18706 0.331164,5.27148"
         style="fill:none;stroke:#5e502f;stroke-width:0.51835251;stroke-linecap:round;stroke-linejoin:round;stroke-miterlimit:4;stroke-dasharray:none;stroke-opacity:1" />
      <path
         sodipodi:nodetypes="cac"
         inkscape:connector-curvature="0"
         id="path5015-8"
         d="m 16.224048,287.78109 c -0.135475,0.30122 0.187695,0.99637 0.07527,1.47599 -0.09594,0.40924 -1.144018,-0.0752 -0.617167,1.09949"
         style="fill:none;stroke:#5e502f;stroke-width:0.51835251;stroke-linecap:round;stroke-linejoin:round;stroke-miterlimit:4;stroke-dasharray:none;stroke-opacity:1" />
      <path
         sodipodi:nodetypes="cc"
         inkscape:connector-curvature="0"
         id="path4708-3-5"
         d="m 10.459005,287.79615 c 0.692432,2.71104 1.79587,2.59577 0.943094,3.81312"
         style="fill:none;stroke:#5e502f;stroke-width:0.51835251;stroke-linecap:round;stroke-linejoin:round;stroke-miterlimit:4;stroke-dasharray:none;stroke-opacity:1" />
      <path
         inkscape:connector-curvature="0"
         id="path4710-6-6"
         d="m 13.138416,287.95487 c 0,0 0.812855,4.18706 -0.331163,5.27148"
         style="fill:none;stroke:#5e502f;stroke-width:0.51835251;stroke-linecap:round;stroke-linejoin:round;stroke-miterlimit:4;stroke-dasharray:none;stroke-opacity:1" />
      <path
         sodipodi:nodetypes="cac"
         inkscape:connector-curvature="0"
         id="path5015-5-1"
         d="m 11.94924,287.78109 c 0.135475,0.30122 -0.187695,0.99637 -0.07526,1.47599 0.09593,0.40924 1.144018,-0.0752 0.617167,1.09949"
         style="fill:none;stroke:#5e502f;stroke-width:0.51835251;stroke-linecap:round;stroke-linejoin:round;stroke-miterlimit:4;stroke-dasharray:none;stroke-opacity:1" />
      <path
         sodipodi:nodetypes="ccsc"
         inkscape:connector-curvature="0"
         id="path5609-1"
         d="m 10.699645,290.62767 c -0.662326,0.57233 -0.9934897,1.80737 -0.632221,2.7713 0.361269,0.96391 1.776239,2.53031 2.408459,1.29528 0.632221,-1.23504 -1.023595,-0.90369 -1.023595,-0.90369"
         style="fill:none;stroke:#5e502f;stroke-width:0.51835251;stroke-linecap:round;stroke-linejoin:round;stroke-miterlimit:4;stroke-dasharray:none;stroke-opacity:1" />
      <path
         inkscape:connector-curvature="0"
         id="path5617-5"
         d="m 16.118679,292.37479 c 0,0 0.451586,3.34362 -1.806346,0.94887"
         style="fill:none;stroke:#5e502f;stroke-width:0.51835251;stroke-linecap:round;stroke-linejoin:round;stroke-miterlimit:4;stroke-dasharray:none;stroke-opacity:1" />
      <path
         sodipodi:nodetypes="cc"
         inkscape:connector-curvature="0"
         id="path5620-9"
         d="m 13.597772,293.60696 c 0,0 -0.276744,1.66139 0.851519,1.64008"
         style="fill:none;stroke:#5e502f;stroke-width:0.51835251;stroke-linecap:round;stroke-linejoin:round;stroke-miterlimit:4;stroke-dasharray:none;stroke-opacity:1" />
      <path
         sodipodi:nodetypes="cc"
         inkscape:connector-curvature="0"
         id="path4708-8"
         d="M 0.91256064,286.79722 C 1.6049927,284.08617 2.7084299,284.20144 1.855654,282.98409"
         style="fill:none;stroke:#5e502f;stroke-width:0.51835251;stroke-linecap:round;stroke-linejoin:round;stroke-miterlimit:4;stroke-dasharray:none;stroke-opacity:1" />
      <path
         inkscape:connector-curvature="0"
         id="path4710-1"
         d="m 3.5919716,286.63849 c 0,0 0.8128551,-4.18705 -0.3311632,-5.27148"
         style="fill:none;stroke:#5e502f;stroke-width:0.51835251;stroke-linecap:round;stroke-linejoin:round;stroke-miterlimit:4;stroke-dasharray:none;stroke-opacity:1" />
      <path
         sodipodi:nodetypes="cac"
         inkscape:connector-curvature="0"
         id="path5015-0"
         d="m 2.402795,286.81228 c 0.1354758,-0.30123 -0.187695,-0.99638 -0.075265,-1.476 0.095931,-0.40924 1.1440181,0.0752 0.6171675,-1.09949"
         style="fill:none;stroke:#5e502f;stroke-width:0.51835251;stroke-linecap:round;stroke-linejoin:round;stroke-miterlimit:4;stroke-dasharray:none;stroke-opacity:1" />
      <path
         sodipodi:nodetypes="cc"
         inkscape:connector-curvature="0"
         id="path4708-3-3"
         d="m 8.1678377,286.79722 c -0.692432,-2.71105 -1.7958692,-2.59578 -0.9430933,-3.81313"
         style="fill:none;stroke:#5e502f;stroke-width:0.51835251;stroke-linecap:round;stroke-linejoin:round;stroke-miterlimit:4;stroke-dasharray:none;stroke-opacity:1" />
      <path
         inkscape:connector-curvature="0"
         id="path4710-6-0"
         d="m 5.4884268,286.63849 c 0,0 -0.8128552,-4.18705 0.3311632,-5.27148"
         style="fill:none;stroke:#5e502f;stroke-width:0.51835251;stroke-linecap:round;stroke-linejoin:round;stroke-miterlimit:4;stroke-dasharray:none;stroke-opacity:1" />
      <path
         sodipodi:nodetypes="cac"
         inkscape:connector-curvature="0"
         id="path5015-5-4"
         d="m 6.6776034,286.81228 c -0.1354758,-0.30123 0.187695,-0.99638 0.075265,-1.476 -0.095931,-0.40924 -1.1440181,0.0752 -0.6171675,-1.09949"
         style="fill:none;stroke:#5e502f;stroke-width:0.51835251;stroke-linecap:round;stroke-linejoin:round;stroke-miterlimit:4;stroke-dasharray:none;stroke-opacity:1" />
      <path
         sodipodi:nodetypes="ccsc"
         inkscape:connector-curvature="0"
         id="path5609-4"
         d="m 7.9271984,283.96569 c 0.6623261,-0.57233 0.9934893,-1.80736 0.6322207,-2.77129 -0.3612691,-0.96392 -1.7762388,-2.53031 -2.4084595,-1.29528 -0.6322205,1.23503 1.0235954,0.90368 1.0235954,0.90368"
         style="fill:none;stroke:#5e502f;stroke-width:0.51835251;stroke-linecap:round;stroke-linejoin:round;stroke-miterlimit:4;stroke-dasharray:none;stroke-opacity:1" />
      <path
         inkscape:connector-curvature="0"
         id="path5617-4"
         d="m 2.5081649,282.21858 c 0,0 -0.451586,-3.34362 1.8063446,-0.94887"
         style="fill:none;stroke:#5e502f;stroke-width:0.51835251;stroke-linecap:round;stroke-linejoin:round;stroke-miterlimit:4;stroke-dasharray:none;stroke-opacity:1" />
      <path
         sodipodi:nodetypes="cc"
         inkscape:connector-curvature="0"
         id="path5620-4"
         d="m 5.0290713,280.98641 c 0,0 0.2767434,-1.66139 -0.8515191,-1.64009"
         style="fill:none;stroke:#5e502f;stroke-width:0.51835251;stroke-linecap:round;stroke-linejoin:round;stroke-miterlimit:4;stroke-dasharray:none;stroke-opacity:1" />
      <path
         sodipodi:nodetypes="cc"
         inkscape:connector-curvature="0"
         id="path4708-31"
         d="m 17.714285,286.79722 c -0.692432,-2.71105 -1.795868,-2.59578 -0.943093,-3.81313"
         style="fill:none;stroke:#5e502f;stroke-width:0.51835251;stroke-linecap:round;stroke-linejoin:round;stroke-miterlimit:4;stroke-dasharray:none;stroke-opacity:1" />
      <path
         inkscape:connector-curvature="0"
         id="path4710-7"
         d="m 15.034875,286.63849 c 0,0 -0.812856,-4.18705 0.331163,-5.27148"
         style="fill:none;stroke:#5e502f;stroke-width:0.51835251;stroke-linecap:round;stroke-linejoin:round;stroke-miterlimit:4;stroke-dasharray:none;stroke-opacity:1" />
      <path
         sodipodi:nodetypes="cac"
         inkscape:connector-curvature="0"
         id="path5015-59"
         d="m 16.224051,286.81228 c -0.135475,-0.30123 0.187695,-0.99638 0.07527,-1.476 -0.09592,-0.40924 -1.144017,0.0752 -0.617166,-1.09949"
         style="fill:none;stroke:#5e502f;stroke-width:0.51835251;stroke-linecap:round;stroke-linejoin:round;stroke-miterlimit:4;stroke-dasharray:none;stroke-opacity:1" />
      <path
         sodipodi:nodetypes="cc"
         inkscape:connector-curvature="0"
         id="path4708-3-6"
         d="m 10.459008,286.79722 c 0.692432,-2.71105 1.79587,-2.59578 0.943094,-3.81313"
         style="fill:none;stroke:#5e502f;stroke-width:0.51835251;stroke-linecap:round;stroke-linejoin:round;stroke-miterlimit:4;stroke-dasharray:none;stroke-opacity:1" />
      <path
         inkscape:connector-curvature="0"
         id="path4710-6-2"
         d="m 13.138419,286.63849 c 0,0 0.812855,-4.18705 -0.331163,-5.27148"
         style="fill:none;stroke:#5e502f;stroke-width:0.51835251;stroke-linecap:round;stroke-linejoin:round;stroke-miterlimit:4;stroke-dasharray:none;stroke-opacity:1" />
      <path
         sodipodi:nodetypes="cac"
         inkscape:connector-curvature="0"
         id="path5015-5-17"
         d="m 11.949243,286.81228 c 0.135475,-0.30123 -0.187695,-0.99638 -0.07526,-1.476 0.09593,-0.40924 1.144018,0.0752 0.617167,-1.09949"
         style="fill:none;stroke:#5e502f;stroke-width:0.51835251;stroke-linecap:round;stroke-linejoin:round;stroke-miterlimit:4;stroke-dasharray:none;stroke-opacity:1" />
      <path
         sodipodi:nodetypes="ccsc"
         inkscape:connector-curvature="0"
         id="path5609-8"
         d="m 10.699648,283.96569 c -0.662327,-0.57233 -0.9934897,-1.80736 -0.632221,-2.77129 0.361269,-0.96392 1.776239,-2.53031 2.408459,-1.29528 0.632221,1.23503 -1.023595,0.90368 -1.023595,0.90368"
         style="fill:none;stroke:#5e502f;stroke-width:0.51835251;stroke-linecap:round;stroke-linejoin:round;stroke-miterlimit:4;stroke-dasharray:none;stroke-opacity:1" />
      <path
         inkscape:connector-curvature="0"
         id="path5617-57"
         d="m 16.118681,282.21858 c 0,0 0.451586,-3.34362 -1.806345,-0.94887"
         style="fill:none;stroke:#5e502f;stroke-width:0.51835251;stroke-linecap:round;stroke-linejoin:round;stroke-miterlimit:4;stroke-dasharray:none;stroke-opacity:1" />
      <path
         sodipodi:nodetypes="cc"
         inkscape:connector-curvature="0"
         id="path5620-41"
         d="m 13.597775,280.98641 c 0,0 -0.276744,-1.66139 0.851519,-1.64009"
         style="fill:none;stroke:#5e502f;stroke-width:0.51835251;stroke-linecap:round;stroke-linejoin:round;stroke-miterlimit:4;stroke-dasharray:none;stroke-opacity:1" />
      <path
         inkscape:connector-curvature="0"
         id="path5832"
         d="m 9.3133829,283.39583 v 7.80178"
         style="fill:none;stroke:#54441c;stroke-width:0.51835251;stroke-linecap:round;stroke-linejoin:round;stroke-miterlimit:4;stroke-dasharray:none;stroke-opacity:1" />
    </g>
  </g>
</svg>
