<?xml version="1.0" encoding="UTF-8"?>
<!-- Created with Inkscape (http://www.inkscape.org/) -->
<svg width="100" height="100" version="1.1" viewBox="0 0 26.458321 26.458272" xmlns="http://www.w3.org/2000/svg" xmlns:cc="http://creativecommons.org/ns#" xmlns:dc="http://purl.org/dc/elements/1.1/" xmlns:rdf="http://www.w3.org/1999/02/22-rdf-syntax-ns#" xmlns:xlink="http://www.w3.org/1999/xlink">
 <defs>
  <radialGradient id="radialGradient4520" cx="63.974" cy="74.089" r="3.409" gradientTransform="matrix(.43992 0 0 .43992 35.518 41.772)" gradientUnits="userSpaceOnUse">
   <stop stop-color="#b8dab8" offset="0"/>
   <stop stop-color="#b8dab8" stop-opacity="0" offset="1"/>
  </radialGradient>
 </defs>
 <metadata>
  <rdf:RDF>
   <cc:Work rdf:about="">
    <dc:format>image/svg+xml</dc:format>
    <dc:type rdf:resource="http://purl.org/dc/dcmitype/StillImage"/>
    <dc:title/>
   </cc:Work>
  </rdf:RDF>
 </metadata>
 <g transform="translate(-50.418 -61.121)">
  <path d="m62.172 61.387c-0.07074 1.45e-4 -0.14146 0.0044-0.2121 0.01365-3.83e-4 5.1e-5 -7.44e-4 2.27e-4 -0.0012 2.27e-4 -0.565 0.07482-1.0488 0.46682-1.5981 0.61403-0.54937 0.1472-1.1642 0.04968-1.6909 0.26734-0.52696 0.21827-0.89292 0.7225-1.3858 1.0071-0.49258 0.28439-1.1118 0.34925-1.5643 0.69587l-2.32e-4 2.32e-4c-0.45234 0.34725-0.67541 0.92888-1.0778 1.3313-0.40215 0.40215-0.98326 0.62528-1.3306 1.0771l-2.32e-4 -2.34e-4c-0.34722 0.45251-0.41197 1.0723-0.69655 1.5652-0.28458 0.4929-0.78904 0.85909-1.0073 1.386h2.26e-4c-0.21756 0.52665-0.12015 1.1416-0.26733 1.6909-0.14725 0.54954-0.53934 1.0334-0.61403 1.5986l-0.0275-0.0037c-0.07445 0.5655 0.17937 1.1345 0.17937 1.7036 0 0.56877-0.25355 1.1376-0.17959 1.7027 5.2e-5 3.49e-4 2.28e-4 6.97e-4 2.28e-4 0.0012 0.07482 0.565 0.46682 1.0488 0.61403 1.5982 0.1472 0.54937 0.04968 1.1642 0.26734 1.6909 0.21828 0.52696 0.7225 0.89292 1.0071 1.3858 0.28439 0.49258 0.34925 1.1118 0.69587 1.5643l2.32e-4 2.33e-4c0.34725 0.45234 0.92888 0.67541 1.3313 1.0778 0.40216 0.40215 0.62528 0.98326 1.0771 1.3306l-2.33e-4 2.33e-4c0.45251 0.34722 1.0723 0.41197 1.5652 0.69655s0.85909 0.78904 1.386 1.0073v-2.34e-4c0.52665 0.21757 1.1416 0.12016 1.6909 0.26734 0.54962 0.14727 1.0335 0.53966 1.5988 0.61425l-0.0037 0.0275c0.5655 0.07445 1.1345-0.17937 1.7036-0.17937 0.56877 0 1.1376 0.25355 1.7027 0.17959 3.5e-4 -4.8e-5 6.99e-4 -2.33e-4 0.0012-2.33e-4 0.565-0.07482 1.0488-0.46682 1.5982-0.61403 0.54937-0.1472 1.1642-0.04967 1.6909-0.26734 0.52696-0.21827 0.89292-0.72251 1.3858-1.0071 0.49258-0.28439 1.1118-0.34925 1.5643-0.69587l2.33e-4 -2.32e-4c0.45234-0.34725 0.6754-0.92888 1.0778-1.3313 0.40215-0.40215 0.98326-0.62528 1.3306-1.0771l2.32e-4 2.33e-4c0.34722-0.45251 0.41197-1.0723 0.69655-1.5652 0.28458-0.4929 0.78904-0.85909 1.0073-1.386h-2.33e-4c0.21757-0.52665 0.12016-1.1416 0.26734-1.6909 0.14727-0.54962 0.53966-1.0335 0.61426-1.5988l0.02728 0.0037c0.07445-0.5655-0.17936-1.1345-0.17936-1.7036 0-0.56877 0.25355-1.1376 0.17959-1.7027-5.1e-5 -3.83e-4 -2.32e-4 -7.56e-4 -2.32e-4 -0.0012-0.07482-0.565-0.46682-1.0488-0.61403-1.5982-0.1472-0.54937-0.04968-1.1642-0.26734-1.6909-0.21827-0.52696-0.72251-0.89292-1.0071-1.3858-0.28439-0.49258-0.34925-1.1118-0.69587-1.5643l-2.33e-4 -2.32e-4c-0.34725-0.45234-0.92888-0.67541-1.3313-1.0778-0.40215-0.40215-0.62528-0.98326-1.0771-1.3306l2.34e-4 -2.33e-4c-0.45248-0.34722-1.0723-0.41197-1.5652-0.69655-0.4929-0.28458-0.85909-0.78904-1.386-1.0073v2.26e-4c-0.5267-0.21756-1.1416-0.12016-1.6909-0.26735-0.54962-0.14727-1.0335-0.53966-1.5988-0.61426l0.0037-0.02727c-0.5655-0.07445-1.1345 0.17937-1.7036 0.17937-0.49768 0-0.99538-0.19425-1.4906-0.19324zm1.4638 12.948 0.02614 0.0034 2.33e-4 2.32e-4 2.33e-4 9.31e-4 -0.0034 0.02523-2.33e-4 2.33e-4h-2.33e-4l-0.02591-0.0035-2.32e-4 -2.32e-4 -2.34e-4 -0.0012 0.0035-0.025z" fill="#98cc98" fill-opacity=".99606" stroke="#328f32" stroke-linecap="round" stroke-linejoin="bevel" stroke-width=".52917"/>
  <path d="m62.342 62.878c-0.06261 1.27e-4 -0.12519 0.0039-0.1877 0.01208-3.41e-4 4.5e-5 -6.6e-4 2e-4 -9.89e-4 2e-4 -0.5 0.06623-0.9281 0.41311-1.4143 0.54338-0.48617 0.13027-1.0303 0.04397-1.4964 0.23659-0.46634 0.19316-0.79019 0.63938-1.2264 0.89122-0.43591 0.25167-0.98393 0.30907-1.3843 0.61581l-2.06e-4 2.06e-4c-0.4003 0.3073-0.5977 0.82202-0.95379 1.1781-0.35589 0.35589-0.87014 0.55334-1.1775 0.95318l-2.07e-4 -2.05e-4c-0.30728 0.40045-0.36457 0.94892-0.61641 1.3851-0.25184 0.4362-0.69826 0.76025-0.89142 1.2266h2.02e-4c-0.19252 0.46606-0.10632 1.0103-0.23658 1.4964-0.13031 0.48631-0.47729 0.91452-0.54338 1.4147l-0.02435-0.0033c-0.06587 0.50044 0.15873 1.004 0.15873 1.5076 0 0.50334-0.22438 1.0067-0.15893 1.5068 4.4e-5 3.1e-4 2.01e-4 6.15e-4 2.01e-4 9.88e-4 0.06623 0.5 0.41311 0.9281 0.54338 1.4143 0.13027 0.48617 0.04397 1.0303 0.23659 1.4964 0.19316 0.46634 0.63938 0.79019 0.89122 1.2264 0.25167 0.43591 0.30907 0.98393 0.61581 1.3843l2.07e-4 2.06e-4c0.3073 0.4003 0.82202 0.5977 1.1781 0.95379 0.35589 0.35589 0.55334 0.87014 0.95318 1.1775l-2.06e-4 2.06e-4c0.40045 0.30728 0.94892 0.36457 1.3851 0.61641 0.4362 0.25184 0.76025 0.69826 1.2266 0.89143v-2.05e-4c0.46606 0.19254 1.0103 0.10633 1.4964 0.23659 0.48639 0.13032 0.91462 0.47757 1.4149 0.54359l-0.0033 0.02433c0.50044 0.06589 1.004-0.15874 1.5076-0.15874 0.50334 0 1.0067 0.22438 1.5068 0.15893 3.1e-4 -3.9e-5 6.16e-4 -2.02e-4 9.89e-4 -2.02e-4 0.5-0.06622 0.9281-0.41312 1.4143-0.54339 0.48617-0.13027 1.0303-0.04396 1.4964-0.23659 0.46634-0.19316 0.79019-0.63938 1.2264-0.89123 0.43591-0.25167 0.98393-0.30907 1.3843-0.61581l2.07e-4 -2.07e-4c0.4003-0.3073 0.5977-0.82202 0.95379-1.1781 0.35589-0.35589 0.87014-0.55334 1.1775-0.95318l2.06e-4 2.06e-4c0.30728-0.40045 0.36457-0.94892 0.61641-1.3851 0.25184-0.4362 0.69826-0.76025 0.89142-1.2266h-2.06e-4c0.19254-0.46606 0.10633-1.0103 0.23659-1.4964 0.13032-0.48639 0.47757-0.91462 0.54359-1.4149l0.02414 0.0033c0.06587-0.50044-0.15873-1.004-0.15873-1.5076 0-0.50334 0.22438-1.0067 0.15893-1.5068-4.5e-5 -3.4e-4 -2.06e-4 -6.59e-4 -2.06e-4 -9.89e-4 -0.06621-0.5-0.41311-0.9281-0.54338-1.4143-0.13027-0.48617-0.04397-1.0303-0.23659-1.4964-0.19315-0.46633-0.63937-0.79019-0.89121-1.2264-0.25167-0.43591-0.30907-0.98393-0.61581-1.3843l-2.07e-4 -2.06e-4c-0.30724-0.40027-0.82195-0.59767-1.178-0.95376-0.35589-0.35589-0.55334-0.87014-0.95319-1.1775l2.05e-4 -2.05e-4c-0.40041-0.30729-0.94888-0.36458-1.3851-0.61642-0.4362-0.25184-0.76025-0.69826-1.2266-0.89142v2e-4c-0.4661-0.19254-1.0103-0.10634-1.4964-0.23659-0.48639-0.13033-0.91462-0.47757-1.4149-0.54359l0.0033-0.02414c-0.50044-0.06587-1.004 0.15873-1.5076 0.15873-0.44042 0-0.88087-0.1719-1.3191-0.171zm1.2954 11.458 0.02314 0.0031 2.05e-4 2.07e-4 2.07e-4 8.36e-4 -0.0031 0.02233-2.05e-4 2.06e-4h-2.07e-4l-0.02293-0.0031-2.07e-4 -2.06e-4 -2.05e-4 -9.88e-4 0.0031-0.02213z" fill="#b8dab8" fill-opacity=".99606"/>
  <circle transform="rotate(20.811)" cx="85.928" cy="46.895" r="0" fill="#b8dab8"/>
  <path d="m65.723 68.94c-0.71942-0.27344-1.4785-0.39825-2.2331-0.376-0.75466 0.02224-0.9334 1.4639-1.6355 1.7793-0.70206 0.31535-1.8985-0.50861-2.4164 0.04074-0.51789 0.54936-0.92876 1.1997-1.2022 1.9191-0.27344 0.71942-0.39825 1.4785-0.376 2.2331s1.4638 0.93366 1.7792 1.6357c0.31535 0.70205-0.50861 1.8985 0.04075 2.4164 0.54935 0.51789 1.1998 0.92851 1.9192 1.2019 0.71942 0.27344 1.4784 0.39851 2.233 0.37626 0.75465-0.02225 0.93366-1.4638 1.6357-1.7792 0.70205-0.31535 1.8986 0.50836 2.4165-0.041 0.51789-0.54936 0.92851-1.1998 1.2019-1.9192 0.27344-0.71941 0.39851-1.4784 0.37626-2.233-0.02226-0.75465-1.4639-0.9334-1.7793-1.6355-0.31535-0.70206 0.50835-1.8986-0.041-2.4165-0.54935-0.51789-1.1997-0.92876-1.9191-1.2022z" fill="#fff" stroke="#98cc98" stroke-linecap="round" stroke-linejoin="bevel" stroke-width=".52917"/>
  <path d="m64.194 72.963c-0.1859-0.07065-0.38204-0.10291-0.57704-0.09716-0.195 0.0057-0.24119 0.37828-0.4226 0.45976-0.18141 0.08149-0.49057-0.13142-0.62439 0.01053-0.13382 0.14195-0.23999 0.31-0.31065 0.49589-0.07065 0.1859-0.10291 0.38204-0.09716 0.57704 0.0057 0.195 0.37825 0.24126 0.45974 0.42267 0.08148 0.18141-0.13143 0.49057 0.01053 0.62439 0.14195 0.13382 0.31002 0.23993 0.49592 0.31058 0.1859 0.07065 0.38201 0.10297 0.57701 0.09722 0.195-0.0057 0.24126-0.37825 0.42267-0.45974 0.18141-0.08149 0.49059 0.13136 0.62442-0.01059 0.13382-0.14195 0.23992-0.31002 0.31058-0.49592 0.07065-0.1859 0.10297-0.38201 0.09722-0.57701-0.0057-0.195-0.37828-0.24119-0.45976-0.4226-0.08149-0.18141 0.13136-0.49059-0.01059-0.62442-0.14195-0.13382-0.31-0.23999-0.49589-0.31065z" fill="url(#radialGradient4520)"/>
  <path d="m66.888 76.042c-0.55797-0.21208-1.2821-0.90979-1.2821-0.90979s1.0048-0.04057 1.5627 0.1715c0.55797 0.21208 0.53533 0.39262 0.45784 0.59649-0.07749 0.20387-0.18049 0.35387-0.73845 0.1418z" fill="#fff" fill-opacity=".9685" stroke="#53a553" stroke-linecap="round" stroke-width=".52917"/>
  <path d="m67.288 74.53c-0.59532 0.0436-1.5465-0.2827-1.5465-0.2827s0.89349-0.4614 1.4888-0.50501c0.59532-0.0436 0.6511 0.12959 0.66703 0.34711 0.01594 0.21752-0.01402 0.397-0.60934 0.4406z" fill="#fff" fill-opacity=".9685" stroke="#53a553" stroke-linecap="round" stroke-width=".52917"/>
  <path d="m65.886 77.244c-0.41606-0.42801-0.77751-1.3664-0.77751-1.3664s0.92778 0.38787 1.3438 0.81588c0.41606 0.42801 0.31925 0.58207 0.16286 0.7341-0.15639 0.15203-0.31313 0.24444-0.72919-0.18357z" fill="#fff" fill-opacity=".9685" stroke="#53a553" stroke-linecap="round" stroke-width=".52917"/>
  <g transform="matrix(0 .98873 -.98873 0 136.93 11.131)" fill="#fff" fill-opacity=".9685" stroke="#53a553" stroke-linecap="round" stroke-width=".5352">
   <path d="m67.221 75.766c-0.56433-0.21449-1.2967-0.92017-1.2967-0.92017s1.0162-0.04103 1.5806 0.17346c0.56433 0.21449 0.54143 0.3971 0.46306 0.60329-0.07837 0.2062-0.18254 0.35791-0.74687 0.14341z"/>
   <path d="m67.625 74.237c-0.60211 0.0441-1.5641-0.28592-1.5641-0.28592s0.90368-0.46666 1.5058-0.51076c0.60211-0.0441 0.65852 0.13107 0.67464 0.35107 0.01612 0.22-0.01418 0.40152-0.61629 0.44562z"/>
   <path d="m66.208 76.981c-0.42081-0.43289-0.78637-1.382-0.78637-1.382s0.93836 0.39229 1.3592 0.82518c0.42081 0.43289 0.32288 0.58871 0.16471 0.74246-0.15817 0.15376-0.3167 0.24723-0.73751-0.18566z"/>
  </g>
  <g transform="matrix(-.98873 0 0 -.98873 126.93 147.64)" fill="#fff" fill-opacity=".9685" stroke="#53a553" stroke-linecap="round" stroke-width=".5352">
   <path d="m67.221 75.766c-0.56433-0.21449-1.2967-0.92017-1.2967-0.92017s1.0162-0.04103 1.5806 0.17346c0.56433 0.21449 0.54143 0.3971 0.46306 0.60329-0.07837 0.2062-0.18254 0.35791-0.74687 0.14341z"/>
   <path d="m67.625 74.237c-0.60211 0.0441-1.5641-0.28592-1.5641-0.28592s0.90368-0.46666 1.5058-0.51076c0.60211-0.0441 0.65852 0.13107 0.67464 0.35107 0.01612 0.22-0.01418 0.40152-0.61629 0.44562z"/>
   <path d="m66.208 76.981c-0.42081-0.43289-0.78637-1.382-0.78637-1.382s0.93836 0.39229 1.3592 0.82518c0.42081 0.43289 0.32288 0.58871 0.16471 0.74246-0.15817 0.15376-0.3167 0.24723-0.73751-0.18566z"/>
  </g>
  <g transform="matrix(0 -.98873 .98873 0 -9.5759 137.64)" fill="#fff" fill-opacity=".9685" stroke="#53a553" stroke-linecap="round" stroke-width=".5352">
   <path d="m67.221 75.766c-0.56433-0.21449-1.2967-0.92017-1.2967-0.92017s1.0162-0.04103 1.5806 0.17346c0.56433 0.21449 0.54143 0.3971 0.46306 0.60329-0.07837 0.2062-0.18254 0.35791-0.74687 0.14341z"/>
   <path d="m67.625 74.237c-0.60211 0.0441-1.5641-0.28592-1.5641-0.28592s0.90368-0.46666 1.5058-0.51076c0.60211-0.0441 0.65852 0.13107 0.67464 0.35107 0.01612 0.22-0.01418 0.40152-0.61629 0.44562z"/>
   <path d="m66.208 76.981c-0.42081-0.43289-0.78637-1.382-0.78637-1.382s0.93836 0.39229 1.3592 0.82518c0.42081 0.43289 0.32288 0.58871 0.16471 0.74246-0.15817 0.15376-0.3167 0.24723-0.73751-0.18566z"/>
  </g>
 </g>
</svg>
