<?xml version="1.0" encoding="UTF-8"?>
<!-- Created with Inkscape (http://www.inkscape.org/) -->
<svg width="75.014" height="69.986" version="1.1" viewBox="0 0 19.847441 18.517168" xmlns="http://www.w3.org/2000/svg" xmlns:cc="http://creativecommons.org/ns#" xmlns:dc="http://purl.org/dc/elements/1.1/" xmlns:rdf="http://www.w3.org/1999/02/22-rdf-syntax-ns#">
 <metadata>
  <rdf:RDF>
   <cc:Work rdf:about="">
    <dc:format>image/svg+xml</dc:format>
    <dc:type rdf:resource="http://purl.org/dc/dcmitype/StillImage"/>
    <dc:title/>
   </cc:Work>
  </rdf:RDF>
 </metadata>
 <g transform="translate(.61035 -278.04)">
  <g transform="matrix(1.028 0 0 1.0138 -.26042 -3.9683)" stroke-linecap="round" stroke-linejoin="round" stroke-width=".51835">
   <path d="m4.4383 278.42a1.0537 1.0543 0 0 0 -0.59024 0.19965 1.0537 1.0543 0 0 0 -0.19605 -0.0188 1.0537 1.0543 0 0 0 -1.0535 1.0541 1.0537 1.0543 0 0 0 0.00279 0.0565 3.974 8.7356 0 0 0 -0.025117 0.0307 1.0537 1.0543 0 0 0 -0.33907 -0.0572 1.0537 1.0543 0 0 0 -1.0535 1.0541 1.0537 1.0543 0 0 0 0.31744 0.75392 1.0537 1.0543 0 0 0 -0.31744 0.75252 1.0537 1.0543 0 0 0 0.039768 0.28342 1.0537 1.0543 0 0 0 -0.67187 0.98149 1.0537 1.0543 0 0 0 0.28884 0.7239 3.974 8.7356 0 0 0 -0.011163 0.0684 1.0537 1.0543 0 0 0 -0.30837 0.74415 1.0537 1.0543 0 0 0 0.064884 0.35951 1.0537 1.0543 0 0 0 -0.41512 0.70366 1.0537 1.0543 0 0 0 -0.25186 0.68411 1.0537 1.0543 0 0 0 0.12698 0.49912 1.0537 1.0543 0 0 0 -0.12698 0.49912 1.0537 1.0543 0 0 0 0.25186 0.68412 1.0537 1.0543 0 0 0 0.41512 0.70365 1.0537 1.0543 0 0 0 -0.064884 0.35951 1.0537 1.0543 0 0 0 0.30837 0.74415 3.974 8.7356 0 0 0 0.011163 0.0684 1.0537 1.0543 0 0 0 -0.28884 0.7239 1.0537 1.0543 0 0 0 0.67187 0.98149 1.0537 1.0543 0 0 0 -0.039768 0.28342 1.0537 1.0543 0 0 0 0.31744 0.75252 1.0537 1.0543 0 0 0 -0.31744 0.75392 1.0537 1.0543 0 0 0 1.0535 1.0541 1.0537 1.0543 0 0 0 0.33907 -0.0572 3.974 8.7356 0 0 0 0.025116 0.0307 1.0537 1.0543 0 0 0 -0.00279 0.0565 1.0537 1.0543 0 0 0 1.0535 1.0541 1.0537 1.0543 0 0 0 0.19605 -0.0188 1.0537 1.0543 0 0 0 0.61675 0.19964 1.0537 1.0543 0 0 0 0.075349 -4e-3c0.025058 3e-3 0.050191 4e-3 0.07535 4e-3 0.16867-6.7e-4 0.31556-0.11601 0.48419-0.12006 0.86541-0.0208 2.4745-0.1355 3.3098-0.39162 0.53637-0.16445 0.79438-1.2577 0.90419-2.786 0.10982 1.5282 0.36714 2.6216 0.90349 2.786 0.83533 0.25612 2.4444 0.37081 3.3098 0.39162 0.16863 4e-3 0.31552 0.11939 0.48419 0.12006 0.02515 0 0.05029-2e-3 0.07535-4e-3a1.0537 1.0543 0 0 0 0.07535 4e-3 1.0537 1.0543 0 0 0 0.61675 -0.19964 1.0537 1.0543 0 0 0 0.19605 0.0188 1.0537 1.0543 0 0 0 1.0535 -1.0541 1.0537 1.0543 0 0 0 -0.0028 -0.0565 3.974 8.7356 0 0 0 0.02512 -0.0307 1.0537 1.0543 0 0 0 0.33907 0.0572 1.0537 1.0543 0 0 0 1.0535 -1.0541 1.0537 1.0543 0 0 0 -0.31744 -0.75392 1.0537 1.0543 0 0 0 0.31744 -0.75252 1.0537 1.0543 0 0 0 -0.03977 -0.28342 1.0537 1.0543 0 0 0 0.67187 -0.98149 1.0537 1.0543 0 0 0 -0.28884 -0.7239 3.974 8.7356 0 0 0 0.01116 -0.0684 1.0537 1.0543 0 0 0 0.30838 -0.74415 1.0537 1.0543 0 0 0 -0.06489 -0.35951 1.0537 1.0543 0 0 0 0.41512 -0.70365 1.0537 1.0543 0 0 0 0.25186 -0.68412 1.0537 1.0543 0 0 0 -0.12698 -0.49912 1.0537 1.0543 0 0 0 0.12698 -0.49912 1.0537 1.0543 0 0 0 -0.25186 -0.68411 1.0537 1.0543 0 0 0 -0.41512 -0.70366 1.0537 1.0543 0 0 0 0.06489 -0.35951 1.0537 1.0543 0 0 0 -0.30838 -0.74415 3.974 8.7356 0 0 0 -0.01116 -0.0684 1.0537 1.0543 0 0 0 0.28884 -0.7239 1.0537 1.0543 0 0 0 -0.67187 -0.98149 1.0537 1.0543 0 0 0 0.03977 -0.28342 1.0537 1.0543 0 0 0 -0.31744 -0.75252 1.0537 1.0543 0 0 0 0.31744 -0.75392 1.0537 1.0543 0 0 0 -1.0535 -1.0541 1.0537 1.0543 0 0 0 -0.33907 0.0572 3.974 8.7356 0 0 0 -0.02512 -0.0307 1.0537 1.0543 0 0 0 0.0028 -0.0565 1.0537 1.0543 0 0 0 -1.0535 -1.0541 1.0537 1.0543 0 0 0 -0.19605 0.0188 1.0537 1.0543 0 0 0 -0.61675 -0.19965 1.0537 1.0543 0 0 0 -0.07535 4e-3c-0.02506-3e-3 -0.0502-4e-3 -0.07535-4e-3 -0.16868 6.8e-4 -0.31556 0.11602-0.48419 0.12007-0.86541 0.0208-2.4745 0.1355-3.3098 0.39162-0.53637 0.16445-0.79368 1.2577-0.90349 2.786-0.10981-1.5283-0.36782-2.6216-0.90419-2.786-0.83533-0.25612-2.4444-0.37082-3.3098-0.39162-0.16863-4e-3 -0.31551-0.11939-0.48419-0.12007-0.025158 0-0.050292 1e-3 -0.07535 4e-3a1.0537 1.0543 0 0 0 -0.075349 -4e-3 1.0537 1.0543 0 0 0 -0.026512 0z" fill="#806e43" fill-opacity=".99606" stroke="#54441c"/>
   <path d="m0.91256 287.8c0.69243 2.711 1.7959 2.5958 0.94309 3.8131" fill="none" stroke="#5e502f"/>
   <path d="m3.592 287.95s0.81286 4.1871-0.33116 5.2715" fill="none" stroke="#5e502f"/>
   <path d="m2.4028 287.78c0.13548 0.30122-0.1877 0.99637-0.075265 1.476 0.095931 0.40924 1.144-0.0752 0.61717 1.0995" fill="none" stroke="#5e502f"/>
   <path d="m8.1678 287.8c-0.69243 2.711-1.7959 2.5958-0.94309 3.8131" fill="none" stroke="#5e502f"/>
   <path d="m5.4884 287.95s-0.81286 4.1871 0.33116 5.2715" fill="none" stroke="#5e502f"/>
   <path d="m6.6776 287.78c-0.13548 0.30122 0.1877 0.99637 0.075265 1.476-0.095931 0.40924-1.144-0.0752-0.61717 1.0995" fill="none" stroke="#5e502f"/>
   <path d="m7.9272 290.63c0.66233 0.57233 0.99349 1.8074 0.63222 2.7713-0.36127 0.96391-1.7762 2.5303-2.4085 1.2953-0.63222-1.235 1.0236-0.90369 1.0236-0.90369" fill="none" stroke="#5e502f"/>
   <path d="m2.5082 292.37s-0.45159 3.3436 1.8063 0.94887" fill="none" stroke="#5e502f"/>
   <path d="m5.0291 293.61s0.27674 1.6614-0.85152 1.6401" fill="none" stroke="#5e502f"/>
   <path d="m17.714 287.8c-0.69243 2.711-1.7959 2.5958-0.94309 3.8131" fill="none" stroke="#5e502f"/>
   <path d="m15.035 287.95s-0.81286 4.1871 0.33116 5.2715" fill="none" stroke="#5e502f"/>
   <path d="m16.224 287.78c-0.13548 0.30122 0.1877 0.99637 0.07527 1.476-0.09594 0.40924-1.144-0.0752-0.61717 1.0995" fill="none" stroke="#5e502f"/>
   <path d="m10.459 287.8c0.69243 2.711 1.7959 2.5958 0.94309 3.8131" fill="none" stroke="#5e502f"/>
   <path d="m13.138 287.95s0.81286 4.1871-0.33116 5.2715" fill="none" stroke="#5e502f"/>
   <path d="m11.949 287.78c0.13548 0.30122-0.1877 0.99637-0.07526 1.476 0.09593 0.40924 1.144-0.0752 0.61717 1.0995" fill="none" stroke="#5e502f"/>
   <path d="m10.7 290.63c-0.66233 0.57233-0.99349 1.8074-0.63222 2.7713 0.36127 0.96391 1.7762 2.5303 2.4085 1.2953 0.63222-1.235-1.0236-0.90369-1.0236-0.90369" fill="none" stroke="#5e502f"/>
   <path d="m16.119 292.37s0.45159 3.3436-1.8063 0.94887" fill="none" stroke="#5e502f"/>
   <path d="m13.598 293.61s-0.27674 1.6614 0.85152 1.6401" fill="none" stroke="#5e502f"/>
   <path d="m0.91256 286.8c0.69243-2.711 1.7959-2.5958 0.94309-3.8131" fill="none" stroke="#5e502f"/>
   <path d="m3.592 286.64s0.81286-4.187-0.33116-5.2715" fill="none" stroke="#5e502f"/>
   <path d="m2.4028 286.81c0.13548-0.30123-0.1877-0.99638-0.075265-1.476 0.095931-0.40924 1.144 0.0752 0.61717-1.0995" fill="none" stroke="#5e502f"/>
   <path d="m8.1678 286.8c-0.69243-2.711-1.7959-2.5958-0.94309-3.8131" fill="none" stroke="#5e502f"/>
   <path d="m5.4884 286.64s-0.81286-4.187 0.33116-5.2715" fill="none" stroke="#5e502f"/>
   <path d="m6.6776 286.81c-0.13548-0.30123 0.1877-0.99638 0.075265-1.476-0.095931-0.40924-1.144 0.0752-0.61717-1.0995" fill="none" stroke="#5e502f"/>
   <path d="m7.9272 283.97c0.66233-0.57233 0.99349-1.8074 0.63222-2.7713-0.36127-0.96392-1.7762-2.5303-2.4085-1.2953-0.63222 1.235 1.0236 0.90368 1.0236 0.90368" fill="none" stroke="#5e502f"/>
   <path d="m2.5082 282.22s-0.45159-3.3436 1.8063-0.94887" fill="none" stroke="#5e502f"/>
   <path d="m5.0291 280.99s0.27674-1.6614-0.85152-1.6401" fill="none" stroke="#5e502f"/>
   <path d="m17.714 286.8c-0.69243-2.711-1.7959-2.5958-0.94309-3.8131" fill="none" stroke="#5e502f"/>
   <path d="m15.035 286.64s-0.81286-4.187 0.33116-5.2715" fill="none" stroke="#5e502f"/>
   <path d="m16.224 286.81c-0.13548-0.30123 0.1877-0.99638 0.07527-1.476-0.09592-0.40924-1.144 0.0752-0.61717-1.0995" fill="none" stroke="#5e502f"/>
   <path d="m10.459 286.8c0.69243-2.711 1.7959-2.5958 0.94309-3.8131" fill="none" stroke="#5e502f"/>
   <path d="m13.138 286.64s0.81286-4.187-0.33116-5.2715" fill="none" stroke="#5e502f"/>
   <path d="m11.949 286.81c0.13548-0.30123-0.1877-0.99638-0.07526-1.476 0.09593-0.40924 1.144 0.0752 0.61717-1.0995" fill="none" stroke="#5e502f"/>
   <path d="m10.7 283.97c-0.66233-0.57233-0.99349-1.8074-0.63222-2.7713 0.36127-0.96392 1.7762-2.5303 2.4085-1.2953 0.63222 1.235-1.0236 0.90368-1.0236 0.90368" fill="none" stroke="#5e502f"/>
   <path d="m16.119 282.22s0.45159-3.3436-1.8063-0.94887" fill="none" stroke="#5e502f"/>
   <path d="m13.598 280.99s-0.27674-1.6614 0.85152-1.6401" fill="none" stroke="#5e502f"/>
   <path d="m9.3134 283.4v7.8018" fill="none" stroke="#54441c"/>
  </g>
 </g>
</svg>
