<?xml version="1.0" encoding="UTF-8"?>
<!-- Created with Inkscape (http://www.inkscape.org/) -->
<svg width="75.014" height="69.986" version="1.1" viewBox="0 0 19.847441 18.517168" xmlns="http://www.w3.org/2000/svg" xmlns:cc="http://creativecommons.org/ns#" xmlns:dc="http://purl.org/dc/elements/1.1/" xmlns:rdf="http://www.w3.org/1999/02/22-rdf-syntax-ns#">
 <metadata>
  <rdf:RDF>
   <cc:Work rdf:about="">
    <dc:format>image/svg+xml</dc:format>
    <dc:type rdf:resource="http://purl.org/dc/dcmitype/StillImage"/>
    <dc:title/>
   </cc:Work>
  </rdf:RDF>
 </metadata>
 <g transform="translate(.61035 -278.04)" stroke-linecap="round" stroke-linejoin="round">
  <path transform="matrix(.26458 0 0 .26458 -.61035 278.04)" d="m18.566 0.99414c-0.82507 0.022677-1.6242 0.28609-2.293 0.76367-0.25106-0.047622-0.5061-0.071888-0.76172-0.072266-2.2604 4.157e-4 -4.0933 1.8086-4.0938 4.0391 0.0017 0.072189 0.006087 0.14461 0.011719 0.2168-0.03258 0.038929-0.065187 0.07788-0.097657 0.11719-0.424-0.14362-0.87004-0.21724-1.3184-0.21875-2.2604 4.157e-4 -4.0914 1.8086-4.0918 4.0391 3.207e-4 1.0875 0.44403 2.1288 1.2324 2.8887-0.78705 0.75859-1.2306 1.7991-1.2324 2.8848 0.00124 0.36737 0.053012 0.73255 0.1543 1.0859-1.5722 0.60321-2.6095 2.0952-2.6113 3.7598 0.00126 1.0321 0.40364 2.0243 1.123 2.7734-0.014623 0.087307-0.028679 0.17441-0.042969 0.26172-0.76611 0.75651-1.1981 1.7821-1.1992 2.8516 0.00215 0.47017 0.087327 0.93768 0.25195 1.3789-0.88304 0.64826-1.4629 1.6192-1.6113 2.6953-0.6317 0.73115-0.97861 1.6603-0.97852 2.6211 0.0017 0.66792 0.17005 1.3247 0.49219 1.9121-0.32214 0.58745-0.49049 1.2461-0.49219 1.9141-1.034e-4 0.96083 0.34681 1.8899 0.97852 2.6211 0.14848 1.0761 0.7283 2.047 1.6113 2.6953-0.16463 0.44122-0.2498 0.90678-0.25195 1.377 0.00113 1.0695 0.43311 2.0951 1.1992 2.8516 0.01429 0.087307 0.028346 0.17441 0.042969 0.26172-0.71941 0.74918-1.1218 1.7433-1.123 2.7754 0.00183 1.6646 1.0391 3.1566 2.6113 3.7598-0.10128 0.35339-0.15306 0.71868-0.1543 1.0859 0.00177 1.0856 0.44537 2.1262 1.2324 2.8848-0.78839 0.75987-1.2321 1.8012-1.2324 2.8887 4.381e-4 2.2305 1.8314 4.0386 4.0918 4.0391 0.44832-0.001398 0.89436-0.077081 1.3184-0.2207 0.032466 0.039307 0.065066 0.080212 0.097657 0.11914-0.005594 0.072189-0.010056 0.14266-0.011719 0.21484 4.38e-4 2.2305 1.8334 4.0386 4.0938 4.0391 0.25562-5.29e-4 0.51066-0.026533 0.76172-0.072266 0.69743 0.49712 1.5361 0.76544 2.3965 0.76563 0.097738-0.001588 0.1956-0.008066 0.29297-0.015626 0.09736 0.011339 0.19523 0.015626 0.29297 0.015626 0.65534-0.002608 1.2257-0.44345 1.8809-0.45898 3.3623-0.079748 9.6139-0.52056 12.859-1.502 2.0839-0.63012 3.0851-4.8179 3.5117-10.674v-31.197c-0.42664-5.8562-1.4278-21.577-3.5117-22.207-1.6227-0.4907-4.5112 0.52494-6.7441 0.25391-2.1052-0.25587-4.4341-1.714-6.1152-1.7539-0.65516-0.015118-1.2255-0.45638-1.8809-0.45898-0.097738 0-0.19562 0.0033793-0.29297 0.015625-0.097369-0.007559-0.19523-0.015625-0.29297-0.015625-0.034318-4.1574e-4 -0.069179-4.1574e-4 -0.10352 0zm37.195 0c-0.65534 0.0026079-1.2257 0.44387-1.8809 0.45898-1.6812 0.039874-4.01 1.498-6.1152 1.7539-2.233 0.27103-5.1214-0.7446-6.7441-0.25391-2.0839 0.63012-3.0851 16.351-3.5117 22.207v31.197c0.42665 5.856 1.4278 10.044 3.5117 10.674 3.2454 0.98139 9.4971 1.4222 12.859 1.502 0.65516 0.015534 1.2255 0.45638 1.8809 0.45898 0.097738 0 0.19561-0.004287 0.29297-0.015626 0.097398 0.00756 0.19523 0.014038 0.29297 0.015626 0.86035-1.89e-4 1.6991-0.2685 2.3965-0.76563 0.25106 0.045733 0.50611 0.071737 0.76172 0.072266 2.2604-4.16e-4 4.0933-1.8086 4.0938-4.0391-0.001511-0.072189-0.006049-0.14266-0.011718-0.21484 0.032579-0.038929 0.065152-0.079834 0.097656-0.11914 0.424 0.14362 0.87004 0.2193 1.3184 0.2207 2.2604-4.15e-4 4.0914-1.8086 4.0918-4.0391-3.21e-4 -1.0875-0.44404-2.1288-1.2324-2.8887 0.78705-0.75859 1.2307-1.7991 1.2324-2.8848-0.001209-0.36726-0.053005-0.73255-0.1543-1.0859 1.5722-0.60321 2.6095-2.0952 2.6113-3.7598-0.001254-1.0321-0.40364-2.0262-1.123-2.7754 0.014626-0.087307 0.028606-0.17441 0.042968-0.26172 0.76611-0.75651 1.1981-1.7821 1.1992-2.8516-0.002154-0.47017-0.087317-0.93573-0.25195-1.377 0.88303-0.64826 1.4629-1.6192 1.6113-2.6953 0.63171-0.73115 0.97862-1.6603 0.97852-2.6211-0.001694-0.66792-0.17006-1.3266-0.49219-1.9141 0.32214-0.58745 0.49049-1.2442 0.49219-1.9121 9.4e-5 -0.96079-0.34682-1.8899-0.97852-2.6211-0.14847-1.0761-0.72829-2.047-1.6113-2.6953 0.16464-0.44122 0.2498-0.90873 0.25195-1.3789-0.00113-1.0695-0.4331-2.0951-1.1992-2.8516-0.014249-0.087307-0.028228-0.17441-0.042968-0.26172 0.71941-0.74918 1.1218-1.7413 1.123-2.7734-0.001833-1.6646-1.0391-3.1566-2.6113-3.7598 0.10125-0.35339 0.15306-0.71857 0.1543-1.0859-0.001772-1.0856-0.44537-2.1262-1.2324-2.8848 0.78839-0.75987 1.2321-1.8012 1.2324-2.8887-4.38e-4 -2.2305-1.8314-4.0386-4.0918-4.0391-0.44832 0.0015118-0.89436 0.075128-1.3184 0.21875-0.032466-0.039307-0.065152-0.078258-0.097656-0.11719 0.005669-0.072189 0.010018-0.14461 0.011718-0.2168-4.38e-4 -2.2305-1.8334-4.0386-4.0938-4.0391-0.25562 3.779e-4 -0.51064 0.024644-0.76172 0.072266-0.66878-0.47758-1.4679-0.74099-2.293-0.76367-0.034356-4.1574e-4 -0.069122-4.1574e-4 -0.10352 0-0.097738 0-0.19561 0.008066-0.29297 0.015625-0.097323-0.012246-0.19523-0.015625-0.29297-0.015625z" fill="#ad9a6b" fill-opacity=".99606" stroke="#725d29" stroke-width="2"/>
  <path d="m0.72496 286.98c0.71179 2.7485 1.8461 2.6316 0.96946 3.8658" fill="none" stroke="#8a784a" stroke-width=".52917"/>
  <path d="m3.1718 288.27s0.83558 4.2449-0.34042 5.3443" fill="none" stroke="#8a784a" stroke-width=".52917"/>
  <path d="m6.5992 287c-0.078864 2.838-1.2105 2.9779-0.08004 3.9847" fill="none" stroke="#8a784a" stroke-width=".52917"/>
  <path d="m7.6992 290.63c0.68085 0.58023 1.0213 1.8323 0.6499 2.8096-0.37137 0.97722-1.8259 2.5653-2.4758 1.3132" fill="none" stroke="#8a784a" stroke-width=".52917"/>
  <path d="m4.6255 293.65s0.28448 1.6843-0.87533 1.6627" fill="none" stroke="#8a784a" stroke-width=".52917"/>
  <path d="m4.2822 287.99s1.5492-2.666 0.60201-3.7036" fill="none" stroke="#8a784a" stroke-width=".52917"/>
  <path d="m2.115 286c0.13926-0.30539-0.19294-1.0101-0.07737-1.4964 0.098613-0.41489 1.176 0.0762 0.63442-1.1147" fill="none" stroke="#8a784a" stroke-width=".52917"/>
  <path d="m7.7337 286.81c-0.71179-2.7485-1.8461-2.6316-0.96946-3.8658" fill="none" stroke="#8a784a" stroke-width=".52917"/>
  <path d="m2.2233 282.31s-0.46421-3.3898 1.8569-0.96198" fill="none" stroke="#8a784a" stroke-width=".52917"/>
  <path d="m6.5325 279.81s2.034 1.561 2.105 5.4635" fill="none" stroke="#8a784a" stroke-width=".52917"/>
  <path d="m17.903 286.98c-0.71179 2.7485-1.8461 2.6316-0.96946 3.8658" fill="none" stroke="#8a784a" stroke-width=".52917"/>
  <path d="m15.456 288.27s-0.83558 4.2449 0.34042 5.3443" fill="none" stroke="#8a784a" stroke-width=".52917"/>
  <path d="m12.028 287c0.07886 2.838 1.2105 2.9779 0.08004 3.9847" fill="none" stroke="#8a784a" stroke-width=".52917"/>
  <path d="m10.928 290.63c-0.68085 0.58023-1.0213 1.8323-0.6499 2.8096 0.37137 0.97722 1.8259 2.5653 2.4758 1.3132" fill="none" stroke="#8a784a" stroke-width=".52917"/>
  <path d="m14.002 293.65s-0.28448 1.6843 0.87533 1.6627" fill="none" stroke="#8a784a" stroke-width=".52917"/>
  <path d="m14.345 287.99s-1.5492-2.666-0.60202-3.7036" fill="none" stroke="#8a784a" stroke-width=".52917"/>
  <path d="m16.513 286c-0.13926-0.30539 0.19294-1.0101 0.07737-1.4964-0.09861-0.41489-1.176 0.0762-0.63442-1.1147" fill="none" stroke="#8a784a" stroke-width=".52917"/>
  <path d="m10.894 286.81c0.71179-2.7485 1.8461-2.6316 0.96946-3.8658" fill="none" stroke="#8a784a" stroke-width=".52917"/>
  <path d="m16.404 282.31s0.46421-3.3898-1.8569-0.96198" fill="none" stroke="#8a784a" stroke-width=".52917"/>
  <path d="m12.095 279.81s-2.034 1.561-2.105 5.4635" fill="none" stroke="#8a784a" stroke-width=".52917"/>
 </g>
</svg>
